<?xml version="1.0" encoding="iso-8859-1"?>
<!-- Generator: Adobe Illustrator 16.0.4, SVG Export Plug-In . SVG Version: 6.00 Build 0)  -->
<!DOCTYPE svg PUBLIC "-//W3C//DTD SVG 1.1//EN" "http://www.w3.org/Graphics/SVG/1.1/DTD/svg11.dtd">
<svg version="1.1" id="Layer_1" xmlns="http://www.w3.org/2000/svg" xmlns:xlink="http://www.w3.org/1999/xlink" x="0px" y="0px"
	 width="28.35px" height="28.35px" viewBox="0 0 28.35 28.35" style="enable-background:new 0 0 28.35 28.35;" xml:space="preserve"
	>
<path d="M13.499,4.499c-5.523,0-10,4.478-10,10c0,5.522,4.478,10,10,10c5.522,0,10-4.478,10-10
	C23.499,8.976,19.021,4.499,13.499,4.499z M19.205,16.105h-4.254v4.254c0,0.729-0.591,1.32-1.32,1.32s-1.32-0.591-1.32-1.32v-4.254
	H8.057c-0.729,0-1.32-0.591-1.32-1.32c0-0.729,0.591-1.319,1.32-1.319h4.254V9.211c0-0.729,0.591-1.32,1.32-1.32
	s1.32,0.591,1.32,1.32v4.254h4.254c0.729,0,1.32,0.591,1.32,1.32S19.935,16.105,19.205,16.105z"/>
</svg>
