<?xml version="1.0" encoding="iso-8859-1"?>
<!-- Generator: Adobe Illustrator 16.0.4, SVG Export Plug-In . SVG Version: 6.00 Build 0)  -->
<!DOCTYPE svg PUBLIC "-//W3C//DTD SVG 1.1//EN" "http://www.w3.org/Graphics/SVG/1.1/DTD/svg11.dtd">
<svg version="1.1" id="Layer_1" xmlns="http://www.w3.org/2000/svg" xmlns:xlink="http://www.w3.org/1999/xlink" x="0px" y="0px"
	 width="28.35px" height="28.35px" viewBox="0 0 28.35 28.35" style="enable-background:new 0 0 28.35 28.35;" xml:space="preserve"
	>
<path d="M23.129,10.372l-2.583,1.223c1.034,2.235,0.716,4.94-0.962,6.883l-1.408-1.408v4.896h4.896l-1.457-1.457
	C24.168,17.689,24.67,13.669,23.129,10.372z M7.49,21.615l-1.458,1.458v-4.897h4.897l-1.407,1.408
	c1.942,1.678,4.648,1.997,6.882,0.962l1.225,2.582C14.332,24.67,10.311,24.168,7.49,21.615z M7.455,16.404l-2.583,1.225
	C3.331,14.333,3.833,10.312,6.385,7.49L4.927,6.033h4.897v4.897L8.417,9.522C6.738,11.465,6.419,14.171,7.455,16.404z M17.07,9.824
	l1.408-1.407c-1.943-1.679-4.648-1.997-6.883-0.962l-1.224-2.582c3.297-1.541,7.317-1.039,10.139,1.513l1.457-1.458v4.896H17.07z
	 M14,10.088c2.16,0,3.912,1.751,3.912,3.912c0,2.16-1.752,3.912-3.912,3.912c-2.161,0-3.912-1.752-3.912-3.912
	C10.088,11.839,11.839,10.088,14,10.088z"/>
</svg>
