<?xml version="1.0" encoding="iso-8859-1"?>
<!-- Generator: Adobe Illustrator 16.0.4, SVG Export Plug-In . SVG Version: 6.00 Build 0)  -->
<!DOCTYPE svg PUBLIC "-//W3C//DTD SVG 1.1//EN" "http://www.w3.org/Graphics/SVG/1.1/DTD/svg11.dtd">
<svg version="1.1" id="Layer_1" xmlns="http://www.w3.org/2000/svg" xmlns:xlink="http://www.w3.org/1999/xlink" x="0px" y="0px"
	 width="28.35px" height="28.35px" viewBox="0 0 28.35 28.35" style="enable-background:new 0 0 28.35 28.35;" xml:space="preserve"
	>
<path d="M18.412,7.5H8.588c-0.144,0-0.281,0.028-0.412,0.083C7.97,7.664,7.805,7.791,7.684,7.963C7.562,8.136,7.5,8.327,7.5,8.537
	v11.926c0,0.21,0.061,0.401,0.183,0.574c0.122,0.173,0.286,0.299,0.492,0.379c0.131,0.056,0.269,0.083,0.412,0.083
	c0.294,0,0.553-0.102,0.778-0.305l4.134-3.923l4.134,3.923c0.219,0.197,0.478,0.296,0.778,0.296c0.156,0,0.294-0.024,0.412-0.074
	c0.207-0.08,0.371-0.206,0.492-0.379c0.122-0.173,0.184-0.364,0.184-0.574V8.537c0-0.21-0.062-0.401-0.184-0.574
	c-0.121-0.173-0.285-0.299-0.492-0.379C18.693,7.529,18.556,7.501,18.412,7.5L18.412,7.5 M18.5,20.5l-5-5l-5,5v-12h10V20.5z"/>
</svg>
