<?xml version="1.0" encoding="iso-8859-1"?>
<!-- Generator: Adobe Illustrator 16.0.4, SVG Export Plug-In . SVG Version: 6.00 Build 0)  -->
<!DOCTYPE svg PUBLIC "-//W3C//DTD SVG 1.1//EN" "http://www.w3.org/Graphics/SVG/1.1/DTD/svg11.dtd">
<svg version="1.1" id="Layer_1" xmlns="http://www.w3.org/2000/svg" xmlns:xlink="http://www.w3.org/1999/xlink" x="0px" y="0px"
	 width="28.35px" height="28.35px" viewBox="0 0 28.35 28.35" style="enable-background:new 0 0 28.35 28.35;" xml:space="preserve"
	>
<path d="M21.5,19.5h-14c-1.103,0-2,0.896-2,2s0.897,2,2,2h14c1.104,0,2-0.896,2-2S22.604,19.5,21.5,19.5z M23.5,14.5
	c0,1.104-0.896,2-2,2h-14c-1.103,0-2-0.896-2-2c0-1.103,0.897-2,2-2h14C22.604,12.5,23.5,13.397,23.5,14.5z M23.5,7.5
	c0,1.103-0.896,2-2,2h-14c-1.103,0-2-0.897-2-2s0.897-2,2-2h14C22.604,5.5,23.5,6.397,23.5,7.5z"/>
</svg>
