<?xml version="1.0" encoding="iso-8859-1"?>
<!-- Generator: Adobe Illustrator 16.0.4, SVG Export Plug-In . SVG Version: 6.00 Build 0)  -->
<!DOCTYPE svg PUBLIC "-//W3C//DTD SVG 1.1//EN" "http://www.w3.org/Graphics/SVG/1.1/DTD/svg11.dtd">
<svg version="1.1" id="Layer_1" xmlns="http://www.w3.org/2000/svg" xmlns:xlink="http://www.w3.org/1999/xlink" x="0px" y="0px"
	 width="28.35px" height="28.35px" viewBox="0 0 28.35 28.35" style="enable-background:new 0 0 28.35 28.35;" xml:space="preserve"
	>
<path d="M8.62,20.41c0.174,0.175,0.375,0.262,0.605,0.262c0.229,0,0.432-0.087,0.605-0.262c0.174-0.174,0.261-0.376,0.261-0.606
	s-0.087-0.433-0.261-0.607c-0.174-0.174-0.376-0.261-0.605-0.261c-0.23,0-0.432,0.087-0.605,0.261
	c-0.174,0.175-0.261,0.377-0.261,0.607S8.446,20.236,8.62,20.41z M21.066,14.118c-0.473,0.485-1.003,0.858-1.593,1.12
	c-0.591,0.262-1.184,0.392-1.78,0.392c-0.396,0-0.807-0.093-1.229-0.279l-5.012,5.713c-0.025,0.038-0.093,0.128-0.205,0.271
	c-0.112,0.143-0.258,0.295-0.438,0.457c-0.18,0.162-0.391,0.314-0.633,0.458c-0.242,0.143-0.512,0.233-0.811,0.271
	c-0.695,0.1-1.366-0.162-2.012-0.784l-0.019-0.019H7.316c0-0.013-0.003-0.019-0.009-0.019c-0.006,0-0.01-0.007-0.01-0.02
	c-0.608-0.659-0.869-1.331-0.782-2.017c0.037-0.299,0.127-0.569,0.27-0.812c0.143-0.243,0.295-0.455,0.457-0.635
	c0.162-0.181,0.313-0.327,0.457-0.439c0.143-0.111,0.233-0.181,0.27-0.205l5.702-5.023c-0.187-0.423-0.28-0.834-0.28-1.232
	c0-0.597,0.131-1.192,0.392-1.783s0.633-1.124,1.118-1.596c0.472-0.473,0.994-0.834,1.565-1.083s1.149-0.367,1.733-0.355
	c0.062,0,0.111,0.013,0.148,0.038s0.112,0.093,0.224,0.205l0.242,0.243c0.124,0.137,0.124,0.268,0,0.392l-0.577,0.579l-0.615,0.616
	c0,0-0.105,0.127-0.316,0.383c-0.168,0.202-0.152,1.108,0.064,1.521c0.119,0.224,0.289,0.448,0.514,0.672
	c0.21,0.211,0.428,0.376,0.651,0.495c0.224,0.118,0.423,0.177,0.597,0.177h0.242c0.161,0,0.288-0.003,0.382-0.009
	c0.093-0.006,0.192-0.041,0.298-0.103c0.105-0.062,0.232-0.168,0.382-0.317l0.615-0.616l0.577-0.579
	c0.124-0.125,0.255-0.125,0.392,0l0.242,0.243c0.111,0.112,0.18,0.187,0.205,0.224c0.024,0.037,0.037,0.087,0.037,0.149
	c0.013,0.585-0.105,1.164-0.354,1.736C21.898,13.122,21.538,13.645,21.066,14.118z"/>
</svg>
