<?xml version="1.0" encoding="iso-8859-1"?>
<!-- Generator: Adobe Illustrator 16.0.4, SVG Export Plug-In . SVG Version: 6.00 Build 0)  -->
<!DOCTYPE svg PUBLIC "-//W3C//DTD SVG 1.1//EN" "http://www.w3.org/Graphics/SVG/1.1/DTD/svg11.dtd">
<svg version="1.1" id="Layer_1" xmlns="http://www.w3.org/2000/svg" xmlns:xlink="http://www.w3.org/1999/xlink" x="0px" y="0px"
	 width="28.35px" height="28.35px" viewBox="0 0 28.35 28.35" style="enable-background:new 0 0 28.35 28.35;" xml:space="preserve"
	>
<path d="M14.174,4.174c-5.523,0-10,4.477-10,9.999c0,5.524,4.477,10,10,10c5.522,0.001,10-4.476,9.999-9.999
	C24.174,8.651,19.696,4.174,14.174,4.174z M19.746,12.854c0.729,0,1.32,0.591,1.32,1.32c0,0.728-0.59,1.32-1.319,1.32l-4.254-0.001
	v4.255c0.001,0.729-0.591,1.32-1.319,1.32c-0.73,0-1.32-0.592-1.32-1.32v-4.254H8.6c-0.729,0-1.32-0.591-1.32-1.32
	s0.591-1.32,1.32-1.32h4.254V8.6c0-0.729,0.59-1.32,1.32-1.32c0.729,0,1.32,0.591,1.319,1.32l0.001,4.255L19.746,12.854z"/>
</svg>
