<?xml version="1.0" encoding="utf-8"?>
<!-- Generator: Adobe Illustrator 16.0.4, SVG Export Plug-In . SVG Version: 6.00 Build 0)  -->
<!DOCTYPE svg PUBLIC "-//W3C//DTD SVG 1.1//EN" "http://www.w3.org/Graphics/SVG/1.1/DTD/svg11.dtd">
<svg version="1.1" id="Layer_1" xmlns="http://www.w3.org/2000/svg" xmlns:xlink="http://www.w3.org/1999/xlink" x="0px" y="0px"
	 width="28.35px" height="28.35px" viewBox="0 0 28.35 28.35" enable-background="new 0 0 28.35 28.35" xml:space="preserve">
<g>
	<path d="M14.173,4.172C8.65,4.172,4.172,8.65,4.172,14.173c0,5.524,4.478,10,10.001,10c5.524,0,10-4.477,10-10
		C24.174,8.65,19.697,4.172,14.173,4.172z M15.129,15.053c-0.518,0.516-1.355,0.513-1.87-0.006
		c-0.515-0.518-0.512-1.354,0.006-1.869c0.312-0.31,0.739-0.43,1.141-0.367l3.454-2.336l-2.357,3.439
		C15.565,14.317,15.44,14.743,15.129,15.053z M22.691,11.632c0.174,0.505,0.273,0.961,0.34,1.34
		c0.016,0.094,0.029,0.184,0.042,0.269c0.014,0.087,0.021,0.173,0.03,0.25c0.009,0.079,0.016,0.151,0.022,0.218
		c0.008,0.065,0.009,0.109,0.012,0.157c0.013,0.183,0.019,0.28,0.019,0.28l-2.033,0.052c0,0,0.002-0.098,0.005-0.282
		c0-0.043,0.003-0.102,0.001-0.148c-0.001-0.046-0.004-0.096-0.006-0.15c-0.001-0.055-0.002-0.113-0.005-0.176
		c-0.005-0.067-0.012-0.138-0.018-0.212c-0.025-0.299-0.073-0.664-0.179-1.072c-0.101-0.408-0.254-0.863-0.479-1.336
		c-0.223-0.473-0.528-0.959-0.908-1.433c-0.195-0.233-0.403-0.467-0.639-0.685c-0.114-0.114-0.239-0.216-0.364-0.324
		c-0.062-0.052-0.129-0.102-0.194-0.153c-0.063-0.052-0.13-0.102-0.2-0.149c-0.543-0.393-1.165-0.72-1.836-0.955
		c-0.337-0.12-0.686-0.209-1.041-0.28c-0.179-0.031-0.358-0.064-0.539-0.083c-0.091-0.011-0.182-0.023-0.273-0.026l-0.137-0.01
		L14.242,6.72l-0.034-0.002L14.19,6.716l-0.008,0c0.002,0-0.02,0,0.004-0.001c-0.192-0.001-0.401-0.011-0.57,0
		c-0.176,0.001-0.36,0.019-0.543,0.034c-0.365,0.042-0.728,0.101-1.082,0.193c-0.707,0.182-1.382,0.463-1.986,0.825
		C9.928,7.808,9.854,7.855,9.781,7.903C9.708,7.952,9.634,7.998,9.562,8.047C9.423,8.149,9.28,8.246,9.149,8.354
		C8.88,8.564,8.635,8.793,8.406,9.026c-0.452,0.471-0.829,0.969-1.119,1.466c-0.292,0.497-0.504,0.985-0.659,1.431
		c-0.155,0.444-0.246,0.849-0.304,1.184C6.31,13.19,6.296,13.27,6.283,13.345c-0.009,0.075-0.018,0.146-0.026,0.211
		c-0.016,0.132-0.029,0.244-0.032,0.336c-0.012,0.184-0.019,0.281-0.019,0.281s-0.001-0.098-0.004-0.282
		c-0.003-0.091,0-0.205,0.006-0.338c0.003-0.067,0.005-0.139,0.008-0.214c0.007-0.077,0.014-0.158,0.021-0.244
		c0.032-0.343,0.09-0.759,0.211-1.226c0.12-0.468,0.297-0.987,0.559-1.526c0.259-0.541,0.61-1.094,1.048-1.63
		c0.222-0.266,0.462-0.53,0.731-0.777C8.917,7.807,9.06,7.69,9.202,7.568c0.072-0.059,0.148-0.114,0.222-0.172
		c0.074-0.059,0.15-0.116,0.23-0.169c0.622-0.443,1.332-0.813,2.099-1.078c0.383-0.133,0.781-0.233,1.187-0.312
		c0.202-0.035,0.405-0.07,0.62-0.091c0.22-0.028,0.402-0.033,0.601-0.048l0.325-0.005c0.104-0.003,0.208,0.001,0.312,0.006
		c0.208,0.004,0.416,0.024,0.624,0.043c0.413,0.049,0.826,0.118,1.227,0.225c0.802,0.211,1.565,0.534,2.248,0.946
		c0.087,0.05,0.17,0.103,0.253,0.158c0.082,0.055,0.166,0.108,0.247,0.164c0.157,0.116,0.317,0.228,0.467,0.351
		c0.302,0.239,0.577,0.499,0.836,0.763c0.508,0.534,0.933,1.1,1.258,1.664C22.283,10.575,22.521,11.127,22.691,11.632z"/>
</g>
</svg>
