<?xml version="1.0" encoding="utf-8"?>
<!-- Generator: Adobe Illustrator 16.0.4, SVG Export Plug-In . SVG Version: 6.00 Build 0)  -->
<!DOCTYPE svg PUBLIC "-//W3C//DTD SVG 1.1//EN" "http://www.w3.org/Graphics/SVG/1.1/DTD/svg11.dtd">
<svg version="1.1" id="Layer_1" xmlns="http://www.w3.org/2000/svg" xmlns:xlink="http://www.w3.org/1999/xlink" x="0px" y="0px"
	 width="28.35px" height="28.35px" viewBox="0 0 28.35 28.35" enable-background="new 0 0 28.35 28.35" xml:space="preserve">
<g>
	<path fill="#010202" d="M19.464,5.208h-2.346V5.195c0-0.913-0.741-1.654-1.654-1.654h-3c-0.915,0-1.655,0.741-1.655,1.653v0.014
		H8.464c-0.915,0-1.655,0.741-1.655,1.653v14.311c0,0.914,0.741,1.655,1.655,1.655h11c0.913,0,1.654-0.741,1.654-1.655V6.862
		C21.118,5.949,20.377,5.208,19.464,5.208z M19.464,21.172h-11V6.863h2.345v0.003c0,0.913,0.741,1.654,1.654,1.654h3
		c0.915,0,1.655-0.741,1.655-1.653V6.863h2.346V21.172z"/>
	<rect x="10.125" y="10.235" fill="#010202" width="7.688" height="1.655"/>
	<rect x="10.125" y="16.918" fill="#010202" width="7.688" height="1.654"/>
	<rect x="10.125" y="13.607" fill="#010202" width="7.688" height="1.655"/>
</g>
</svg>
