<?xml version="1.0" encoding="iso-8859-1"?>
<!-- Generator: Adobe Illustrator 16.0.4, SVG Export Plug-In . SVG Version: 6.00 Build 0)  -->
<!DOCTYPE svg PUBLIC "-//W3C//DTD SVG 1.1//EN" "http://www.w3.org/Graphics/SVG/1.1/DTD/svg11.dtd">
<svg version="1.1" id="Layer_1" xmlns="http://www.w3.org/2000/svg" xmlns:xlink="http://www.w3.org/1999/xlink" x="0px" y="0px"
	 width="28.35px" height="28.35px" viewBox="0 0 28.35 28.35" style="enable-background:new 0 0 28.35 28.35;" xml:space="preserve"
	>
<g>
	<path style="fill:#010202;" d="M9.676,8.551h0.047c0.466,0,0.844-0.377,0.844-0.844V7.426V6.021c0-0.466-0.378-0.844-0.844-0.844
		H9.676c-0.466,0-0.844,0.377-0.844,0.844v1.406v0.281C8.832,8.173,9.21,8.551,9.676,8.551z"/>
	<path style="fill:#010202;" d="M18.393,8.551h0.047c0.466,0,0.844-0.377,0.844-0.844V7.426V6.021c0-0.466-0.378-0.844-0.844-0.844
		h-0.047c-0.466,0-0.844,0.377-0.844,0.844v1.406v0.281C17.549,8.173,17.927,8.551,18.393,8.551z"/>
	<path style="fill:#010202;" d="M20.923,7.426h-0.796v0.281c0,0.931-0.757,1.688-1.688,1.688h-0.047
		c-0.931,0-1.688-0.757-1.688-1.688V7.426H11.41v0.281c0,0.931-0.757,1.688-1.687,1.688H9.676c-0.93,0-1.687-0.757-1.687-1.688
		V7.426H7.426c-1.242,0-2.25,1.007-2.25,2.25v11.247c0,1.242,1.007,2.25,2.25,2.25h13.497c1.242,0,2.25-1.008,2.25-2.25V9.676
		C23.173,8.434,22.165,7.426,20.923,7.426z M22.048,20.923c0,0.621-0.504,1.125-1.125,1.125H7.426c-0.62,0-1.125-0.504-1.125-1.125
		v-8.998h15.746V20.923z"/>
	<circle style="fill:#010202;" cx="9.676" cy="14.737" r="1.383"/>
	<circle style="fill:#010202;" cx="14.175" cy="14.737" r="1.383"/>
	<circle style="fill:#010202;" cx="18.674" cy="14.737" r="1.383"/>
	<circle style="fill:#010202;" cx="9.676" cy="19.236" r="1.383"/>
	<circle style="fill:#010202;" cx="14.175" cy="19.236" r="1.383"/>
	<circle style="fill:#010202;" cx="18.674" cy="19.236" r="1.383"/>
</g>
</svg>
