<?xml version="1.0" encoding="utf-8"?>
<!-- Generator: Adobe Illustrator 16.0.4, SVG Export Plug-In . SVG Version: 6.00 Build 0)  -->
<!DOCTYPE svg PUBLIC "-//W3C//DTD SVG 1.1//EN" "http://www.w3.org/Graphics/SVG/1.1/DTD/svg11.dtd">
<svg version="1.1" id="Layer_2" xmlns="http://www.w3.org/2000/svg" xmlns:xlink="http://www.w3.org/1999/xlink" x="0px" y="0px"
	 width="28.35px" height="28.35px" viewBox="0 0 28.35 28.35" enable-background="new 0 0 28.35 28.35" xml:space="preserve">
<g>
	<path fill="#1D1D1B" d="M6.781,9.777h14.785c0.913,0,1.654-0.742,1.654-1.656V8.105V8.101V8.097V8.082
		c0-0.914-0.741-1.656-1.655-1.656H6.78c-0.913,0-1.654,0.742-1.654,1.656v0.016v0.004v0.004v0.016
		C5.125,9.035,5.866,9.777,6.781,9.777z"/>
	<path fill="#1D1D1B" d="M21.565,18.446H6.78c-0.913,0-1.654,0.742-1.654,1.656v0.016v0.004v0.004v0.016
		c0,0.914,0.741,1.656,1.655,1.656h14.785c0.913,0,1.654-0.742,1.654-1.656v-0.016v-0.004v-0.004v-0.016
		C23.22,19.188,22.479,18.446,21.565,18.446z"/>
	<path fill="#1D1D1B" d="M6.781,16.446h1.345l2-2.335l-2-2.333H6.78c-0.913,0-1.654,0.742-1.654,1.656v0.016v0.004v0.012v1.295
		v0.016v0.016C5.125,15.705,5.866,16.446,6.781,16.446z"/>
	<polygon fill="#1D1D1B" points="15.885,16.446 17.885,14.111 15.885,11.777 10.46,11.777 12.46,14.111 10.46,16.446 	"/>
	<polygon fill="#1D1D1B" points="19.99,16.446 21.566,16.446 22.323,16.446 22.769,15.926 24.323,14.111 22.645,12.152 
		22.323,11.777 21.565,11.777 19.99,11.777 18.219,11.777 20.219,14.111 18.219,16.446 	"/>
</g>
</svg>
