<?xml version="1.0" encoding="utf-8"?>
<!-- Generator: Adobe Illustrator 16.0.4, SVG Export Plug-In . SVG Version: 6.00 Build 0)  -->
<!DOCTYPE svg PUBLIC "-//W3C//DTD SVG 1.1//EN" "http://www.w3.org/Graphics/SVG/1.1/DTD/svg11.dtd">
<svg version="1.1" xmlns="http://www.w3.org/2000/svg" xmlns:xlink="http://www.w3.org/1999/xlink" x="0px" y="0px" width="28.35px"
	 height="28.35px" viewBox="0 0 28.35 28.35" enable-background="new 0 0 28.35 28.35" xml:space="preserve">
<g id="Layer_1">
</g>
<g id="Layer_2">
	<g>
		<rect x="10.125" y="10.234" fill="#020304" width="7.688" height="1.655"/>
		<path fill="#020304" d="M10.125,16.918v1.653h2.48c0.02-0.571,0.106-1.125,0.257-1.653H10.125z"/>
		<path fill="#020304" d="M8.464,21.172V6.862h2.345v0.004c0,0.912,0.741,1.653,1.654,1.653h3c0.915,0,1.655-0.741,1.655-1.652
			V6.862h2.346v5.03c0.015,0,0.03-0.002,0.045-0.002c0.555,0,1.092,0.073,1.609,0.197V6.861c0-0.912-0.741-1.653-1.654-1.653h-2.346
			V5.194c0-0.912-0.741-1.653-1.654-1.653h-3c-0.915,0-1.655,0.741-1.655,1.652v0.015H8.464c-0.915,0-1.655,0.741-1.655,1.652
			v14.312c0,0.914,0.741,1.655,1.655,1.655h5.43c-0.363-0.506-0.657-1.062-0.875-1.655H8.464z"/>
		<path fill="#020304" d="M10.125,13.606v1.655h3.457c0.373-0.622,0.839-1.18,1.382-1.655H10.125z"/>
		<path fill="#020304" d="M19.509,13.265c-3.055,0-5.54,2.485-5.54,5.541s2.485,5.541,5.54,5.541c3.056,0,5.541-2.485,5.541-5.541
			S22.564,13.265,19.509,13.265z M21.895,19.637h-2.318c-0.453,0-0.822-0.369-0.822-0.824v-3.228c0-0.454,0.369-0.823,0.822-0.823
			c0.455,0,0.824,0.368,0.824,0.823v2.403h1.494c0.455,0,0.824,0.369,0.824,0.824S22.35,19.637,21.895,19.637z"/>
	</g>
</g>
</svg>
