<?xml version="1.0" encoding="utf-8"?>
<!-- Generator: Adobe Illustrator 16.0.4, SVG Export Plug-In . SVG Version: 6.00 Build 0)  -->
<!DOCTYPE svg PUBLIC "-//W3C//DTD SVG 1.1//EN" "http://www.w3.org/Graphics/SVG/1.1/DTD/svg11.dtd">
<svg version="1.1" id="Layer_1" xmlns="http://www.w3.org/2000/svg" xmlns:xlink="http://www.w3.org/1999/xlink" x="0px" y="0px"
	 width="28.35px" height="28.35px" viewBox="0 0 28.35 28.35" enable-background="new 0 0 28.35 28.35" xml:space="preserve">
<path d="M22.27,5.109H10.063c-0.861,0-1.562,0.664-1.639,1.506H4.648v14.991l9.326,0.003c0.076,0.844,0.777,1.507,1.641,1.507h6.656
	c0.913,0,1.654-0.74,1.654-1.654v-0.017v-0.016v-1.295v-0.012v-0.004v-0.017c0-0.914-0.741-1.656-1.655-1.656h-6.657
	c-0.861,0-1.562,0.664-1.639,1.507H6.304v-5.014h2.12c0.075,0.844,0.777,1.507,1.641,1.507h6.333c0.913,0,1.654-0.739,1.654-1.653
	v-0.017V14.76v-1.295v-0.012v-0.004v-0.017c0-0.914-0.741-1.656-1.655-1.656h-6.334c-0.861,0-1.562,0.664-1.639,1.506h-2.12V8.271
	h2.12c0.076,0.844,0.777,1.506,1.641,1.506h12.206c0.913,0,1.654-0.739,1.654-1.653V8.107V8.092V6.796V6.784V6.781V6.765
	C23.925,5.851,23.184,5.109,22.27,5.109z"/>
</svg>
