<?xml version="1.0" encoding="utf-8"?>
<!-- Generator: Adobe Illustrator 16.0.4, SVG Export Plug-In . SVG Version: 6.00 Build 0)  -->
<!DOCTYPE svg PUBLIC "-//W3C//DTD SVG 1.1//EN" "http://www.w3.org/Graphics/SVG/1.1/DTD/svg11.dtd">
<svg version="1.1" xmlns="http://www.w3.org/2000/svg" xmlns:xlink="http://www.w3.org/1999/xlink" x="0px" y="0px" width="28.35px"
	 height="28.35px" viewBox="0 0 28.35 28.35" enable-background="new 0 0 28.35 28.35" xml:space="preserve">
<g id="Layer_1">
	<g>
		<path d="M18.195,18.263c-0.322,0.848-0.895,1.503-1.641,1.64l2.734,2.734c0.399,0.401,0.941,0.102,1.341-0.299
			c0.4-0.401,0.7-0.94,0.3-1.341L18.195,18.263z"/>
		<path d="M14.093,11.699c-2.266,0-4.103,1.837-4.103,4.102c0,2.266,1.836,4.102,4.103,4.102c2.266,0,4.102-1.836,4.102-4.102
			C18.195,13.536,16.359,11.699,14.093,11.699z M14.093,18.263c-1.357,0-2.462-1.105-2.462-2.462c0-1.358,1.104-2.461,2.462-2.461
			c1.357,0,2.461,1.104,2.461,2.461C16.554,17.156,15.449,18.263,14.093,18.263z"/>
		<path d="M19.464,5.208h-11c-0.915,0-1.655,0.741-1.655,1.653v14.311c0,0.914,0.741,1.655,1.655,1.655h8.178l-1.655-1.655H8.464
			V6.864h11v9.847l1.654,1.654V6.863C21.118,5.949,20.377,5.208,19.464,5.208z"/>
	</g>
</g>
<g id="Layer_2">
</g>
</svg>
