<?xml version="1.0" encoding="utf-8"?>
<!-- Generator: Adobe Illustrator 16.0.4, SVG Export Plug-In . SVG Version: 6.00 Build 0)  -->
<!DOCTYPE svg PUBLIC "-//W3C//DTD SVG 1.1//EN" "http://www.w3.org/Graphics/SVG/1.1/DTD/svg11.dtd">
<svg version="1.1" id="Layer_1" xmlns="http://www.w3.org/2000/svg" xmlns:xlink="http://www.w3.org/1999/xlink" x="0px" y="0px"
	 width="28.35px" height="28.35px" viewBox="0 0 28.35 28.35" enable-background="new 0 0 28.35 28.35" xml:space="preserve">
<path fill="#020304" d="M4.689,15.386c0,0,6.289,6.604,6.932,7.23c0.645,0.627,1.8,0.671,2.487,0c0.688-0.669,0.742-1.604,0-2.428
	l-4.077-4.251l12.372-0.001c0.002,0,0.003,0.001,0.005,0.001c0.975,0,1.764-0.791,1.764-1.765c0-0.975-0.789-1.765-1.764-1.765
	H10.031l4.077-4.252c0.741-0.822,0.688-1.757,0-2.427c-0.688-0.671-1.842-0.628-2.487,0c-0.643,0.629-6.932,7.229-6.932,7.229
	c-0.344,0.336-0.516,0.774-0.516,1.214C4.174,14.613,4.346,15.052,4.689,15.386z"/>
</svg>
