<?xml version="1.0" encoding="utf-8"?>
<!-- Generator: Adobe Illustrator 16.0.4, SVG Export Plug-In . SVG Version: 6.00 Build 0)  -->
<!DOCTYPE svg PUBLIC "-//W3C//DTD SVG 1.1//EN" "http://www.w3.org/Graphics/SVG/1.1/DTD/svg11.dtd">
<svg version="1.1" id="Layer_1" xmlns="http://www.w3.org/2000/svg" xmlns:xlink="http://www.w3.org/1999/xlink" x="0px" y="0px"
	 width="28.35px" height="28.35px" viewBox="0 0 28.35 28.35" enable-background="new 0 0 28.35 28.35" xml:space="preserve">
<path fill="#020304" d="M12.96,4.689c0,0-6.604,6.289-7.23,6.932c-0.627,0.645-0.671,1.8,0,2.487c0.669,0.688,1.604,0.742,2.428,0
	l4.251-4.077l0.001,12.372c0,0.002-0.001,0.003-0.001,0.005c0,0.975,0.791,1.764,1.765,1.764c0.975,0,1.765-0.789,1.765-1.764
	V10.031l4.252,4.077c0.822,0.741,1.757,0.688,2.427,0c0.671-0.688,0.628-1.842,0-2.487c-0.629-0.643-7.229-6.932-7.229-6.932
	c-0.336-0.344-0.774-0.516-1.214-0.516C13.732,4.174,13.294,4.346,12.96,4.689z"/>
</svg>
