<?xml version="1.0" encoding="utf-8"?>
<!-- Generator: Adobe Illustrator 16.0.4, SVG Export Plug-In . SVG Version: 6.00 Build 0)  -->
<!DOCTYPE svg PUBLIC "-//W3C//DTD SVG 1.1//EN" "http://www.w3.org/Graphics/SVG/1.1/DTD/svg11.dtd">
<svg version="1.1" id="Layer_1" xmlns="http://www.w3.org/2000/svg" xmlns:xlink="http://www.w3.org/1999/xlink" x="0px" y="0px"
	 width="28.35px" height="28.35px" viewBox="0 0 28.35 28.35" enable-background="new 0 0 28.35 28.35" xml:space="preserve">
<path fill="#020304" d="M15.386,23.656c0,0,6.604-6.289,7.23-6.932c0.627-0.645,0.671-1.8,0-2.487c-0.669-0.688-1.604-0.742-2.428,0
	l-4.251,4.077L15.937,5.942c0-0.002,0.001-0.003,0.001-0.005c0-0.974-0.791-1.764-1.765-1.764c-0.975,0-1.765,0.79-1.765,1.764
	v12.377l-4.252-4.077c-0.822-0.741-1.757-0.688-2.427,0c-0.671,0.688-0.628,1.842,0,2.487c0.629,0.643,7.229,6.932,7.229,6.932
	c0.336,0.344,0.774,0.516,1.214,0.516C14.613,24.172,15.052,24,15.386,23.656z"/>
</svg>
