<?xml version="1.0" encoding="utf-8"?>
<!-- Generator: Adobe Illustrator 16.0.4, SVG Export Plug-In . SVG Version: 6.00 Build 0)  -->
<!DOCTYPE svg PUBLIC "-//W3C//DTD SVG 1.1//EN" "http://www.w3.org/Graphics/SVG/1.1/DTD/svg11.dtd">
<svg version="1.1" id="Layer_1" xmlns="http://www.w3.org/2000/svg" xmlns:xlink="http://www.w3.org/1999/xlink" x="0px" y="0px"
	 width="28.35px" height="28.35px" viewBox="0 0 28.35 28.35" enable-background="new 0 0 28.35 28.35" xml:space="preserve">
<path fill="#020304" d="M23.656,12.96c0,0-6.289-6.604-6.932-7.23c-0.644-0.627-1.8-0.671-2.486,0c-0.688,0.669-0.742,1.604,0,2.428
	l4.076,4.251l-12.372,0c-0.002,0-0.003,0-0.005,0c-0.974,0-1.764,0.79-1.764,1.764c0,0.975,0.79,1.765,1.764,1.765h12.377
	l-4.077,4.252c-0.741,0.822-0.688,1.757,0,2.427c0.688,0.671,1.843,0.628,2.486,0c0.644-0.629,6.932-7.229,6.932-7.229
	c0.344-0.336,0.517-0.774,0.517-1.214C24.173,13.732,24,13.294,23.656,12.96z"/>
</svg>
