<?xml version="1.0" encoding="utf-8"?>
<!-- Generator: Adobe Illustrator 16.0.4, SVG Export Plug-In . SVG Version: 6.00 Build 0)  -->
<!DOCTYPE svg PUBLIC "-//W3C//DTD SVG 1.1//EN" "http://www.w3.org/Graphics/SVG/1.1/DTD/svg11.dtd">
<svg version="1.1" id="Layer_1" xmlns="http://www.w3.org/2000/svg" xmlns:xlink="http://www.w3.org/1999/xlink" x="0px" y="0px"
	 width="28.35px" height="28.35px" viewBox="0 0 28.35 28.35" enable-background="new 0 0 28.35 28.35" xml:space="preserve">
<g>
	<path fill="#010202" d="M14.173,4.171c-5.515,0-10,4.486-10,10c0,5.514,4.486,10.001,10,10.001c5.514,0,10.001-4.487,10.001-10.001
		C24.174,8.657,19.687,4.171,14.173,4.171z M14.173,22.045c-4.341,0-7.873-3.532-7.873-7.873C6.3,9.831,9.832,6.3,14.173,6.3
		s7.873,3.531,7.873,7.872C22.046,18.513,18.514,22.045,14.173,22.045z"/>
	<path fill="#010202" d="M19.385,13.863H14.89V8.459c0-0.455-0.368-0.823-0.823-0.823c-0.454,0-0.823,0.369-0.823,0.823v6.228
		c0,0.455,0.369,0.824,0.823,0.824h5.318c0.455,0,0.823-0.369,0.823-0.824S19.84,13.863,19.385,13.863z"/>
</g>
</svg>
