<?xml version="1.0" encoding="iso-8859-1"?>
<!-- Generator: Adobe Illustrator 16.0.4, SVG Export Plug-In . SVG Version: 6.00 Build 0)  -->
<!DOCTYPE svg PUBLIC "-//W3C//DTD SVG 1.1//EN" "http://www.w3.org/Graphics/SVG/1.1/DTD/svg11.dtd">
<svg version="1.1" id="Layer_1" xmlns="http://www.w3.org/2000/svg" xmlns:xlink="http://www.w3.org/1999/xlink" x="0px" y="0px"
	 width="28.35px" height="28.35px" viewBox="0 0 28.35 28.35" style="enable-background:new 0 0 28.35 28.35;" xml:space="preserve"
	>
<path d="M6.428,7.429c-3.906,3.905-3.906,10.237,0,14.143c3.904,3.905,10.236,3.905,14.142,0s3.905-10.237,0-14.143
	S10.332,3.523,6.428,7.429z M18.67,11.601l-3.009,3.009l3.008,3.008c0.516,0.516,0.516,1.352,0,1.867
	c-0.515,0.515-1.351,0.516-1.866,0l-3.008-3.009l-3.009,3.009C10.271,20,9.436,20,8.92,19.484s-0.516-1.352,0-1.867l3.008-3.008
	L8.92,11.601c-0.516-0.515-0.516-1.351,0-1.866s1.352-0.516,1.866,0l3.009,3.008l3.009-3.008c0.515-0.516,1.351-0.516,1.866,0
	C19.186,10.25,19.186,11.085,18.67,11.601z"/>
</svg>
