<?xml version="1.0" encoding="utf-8"?>
<!-- Generator: Adobe Illustrator 16.0.4, SVG Export Plug-In . SVG Version: 6.00 Build 0)  -->
<!DOCTYPE svg PUBLIC "-//W3C//DTD SVG 1.1//EN" "http://www.w3.org/Graphics/SVG/1.1/DTD/svg11.dtd">
<svg version="1.1" id="Layer_1" xmlns="http://www.w3.org/2000/svg" xmlns:xlink="http://www.w3.org/1999/xlink" x="0px" y="0px"
	 width="28.35px" height="28.35px" viewBox="0 0 28.35 28.35" enable-background="new 0 0 28.35 28.35" xml:space="preserve">
<g>
	<g>
		<path fill-rule="evenodd" clip-rule="evenodd" d="M7.458,10.665c0,3.571,3.662,5.729,3.662,8.546h2.442
			C13.492,15.657,9.9,13.75,9.9,10.665c0-4.957,8.545-5.095,8.545,0c0,3.088-3.661,5.074-3.662,8.546h2.441
			c0-2.817,3.663-4.975,3.663-8.546C20.888,2.057,7.458,2.172,7.458,10.665z M15.394,20.432h-2.441c-1.012,0-1.832,0.82-1.832,1.832
			c0,1.011,0.82,1.831,1.832,1.831h2.441c1.011,0,1.831-0.82,1.831-1.831C17.225,21.252,16.404,20.432,15.394,20.432z"/>
	</g>
</g>
</svg>
