<?xml version="1.0" encoding="utf-8"?>
<!-- Generator: Adobe Illustrator 16.0.4, SVG Export Plug-In . SVG Version: 6.00 Build 0)  -->
<!DOCTYPE svg PUBLIC "-//W3C//DTD SVG 1.1//EN" "http://www.w3.org/Graphics/SVG/1.1/DTD/svg11.dtd">
<svg version="1.1" xmlns="http://www.w3.org/2000/svg" xmlns:xlink="http://www.w3.org/1999/xlink" x="0px" y="0px" width="28.35px"
	 height="28.35px" viewBox="0 0 28.35 28.35" enable-background="new 0 0 28.35 28.35" xml:space="preserve">
<g id="Layer_2" display="none">
	<path display="inline" fill="#020304" d="M23.28,13.955c0.338-0.373,0.306-0.943-0.073-1.275l-8.35-7.305
		c-0.379-0.332-0.987-0.325-1.356,0.016l-8.377,7.679c-0.371,0.342-0.391,0.91-0.041,1.271l0.21,0.22
		c0.349,0.363,0.912,0.407,1.257,0.099l0.626-0.562v8.21c0,0.502,0.408,0.908,0.911,0.908h3.266c0.503,0,0.911-0.406,0.911-0.908
		v-5.743h4.167v5.743c-0.01,0.502,0.352,0.908,0.854,0.908h3.461c0.505,0,0.91-0.406,0.91-0.908v-8.096c0,0,0.173,0.153,0.388,0.341
		c0.212,0.186,0.659,0.036,0.999-0.338L23.28,13.955z"/>
</g>
<g id="Layer_1">
	<g>
		<path fill="#020304" d="M6.376,8.883l8.655,0V6.779c0-0.913-0.742-1.654-1.654-1.654h-7c-0.915,0-1.655,0.741-1.655,1.653v10.31
			c0,0.914,0.741,1.655,1.655,1.655h5.008v-1.655H6.376V8.883z"/>
		<path fill="#020304" d="M22.079,10.914H15.08c-0.916,0-1.656,0.741-1.656,1.653v10.311c0,0.914,0.741,1.654,1.656,1.654h6.999
			c0.912,0,1.654-0.74,1.654-1.654v-10.31C23.733,11.655,22.991,10.914,22.079,10.914z M22.079,22.878H15.08v-8.205h6.999V22.878z"
			/>
		<path fill="#020304" d="M9.222,10.489c-0.19-0.186-0.532-0.199-0.735,0c-0.203,0.198-0.219,0.474,0,0.718l1.706,1.779
			l-1.706,1.778c-0.219,0.244-0.203,0.521,0,0.718c0.204,0.199,0.545,0.187,0.735,0c0.19-0.186,2.05-2.137,2.05-2.137
			c0.102-0.099,0.152-0.229,0.152-0.359c0-0.13-0.051-0.26-0.152-0.358C11.272,12.627,9.412,10.674,9.222,10.489z"/>
		<path fill="#020304" d="M19.076,21.24c0.191,0.186,0.533,0.197,0.736,0c0.203-0.199,0.219-0.475,0-0.719l-1.707-1.779l1.707-1.777
			c0.219-0.244,0.203-0.52,0-0.717c-0.204-0.199-0.545-0.188-0.736,0c-0.189,0.186-2.049,2.137-2.049,2.137
			c-0.102,0.1-0.152,0.229-0.152,0.359c0,0.129,0.051,0.26,0.152,0.357C17.027,19.102,18.887,21.055,19.076,21.24z"/>
	</g>
</g>
</svg>
