<?xml version="1.0" encoding="iso-8859-1"?>
<!-- Generator: Adobe Illustrator 16.0.4, SVG Export Plug-In . SVG Version: 6.00 Build 0)  -->
<!DOCTYPE svg PUBLIC "-//W3C//DTD SVG 1.1//EN" "http://www.w3.org/Graphics/SVG/1.1/DTD/svg11.dtd">
<svg version="1.1" id="Layer_1" xmlns="http://www.w3.org/2000/svg" xmlns:xlink="http://www.w3.org/1999/xlink" x="0px" y="0px"
	 width="28.35px" height="28.35px" viewBox="0 0 28.35 28.35" style="enable-background:new 0 0 28.35 28.35;" xml:space="preserve"
	>
<path d="M19.146,12.781l-0.066-0.024l-0.261-0.633l0.028-0.065c0.788-1.824,0.734-1.878,0.604-2.011L18.4,9
	c-0.044-0.043-0.119-0.074-0.185-0.074c-0.059,0-0.237,0-1.79,0.717l-0.062,0.029l-0.64-0.263l-0.026-0.065
	c-0.729-1.845-0.805-1.845-0.986-1.845h-1.484c-0.181,0-0.264,0-0.94,1.848l-0.025,0.067L11.624,9.68l-0.062-0.026
	c-1.051-0.452-1.664-0.682-1.824-0.682c-0.064,0-0.141,0.03-0.184,0.073l-1.052,1.05c-0.134,0.134-0.189,0.19,0.641,1.977
	l0.03,0.066l-0.261,0.633L8.85,12.796c-1.851,0.729-1.851,0.801-1.851,0.991v1.484c0,0.191,0,0.27,1.854,0.948l0.066,0.023
	l0.261,0.632l-0.027,0.064c-0.788,1.824-0.738,1.873-0.604,2.01l1.05,1.049c0.044,0.043,0.12,0.074,0.185,0.074
	c0.059,0,0.237,0,1.791-0.718l0.062-0.03l0.641,0.266l0.025,0.064c0.73,1.845,0.805,1.845,0.987,1.845h1.484
	c0.187,0,0.264,0,0.941-1.85l0.025-0.067l0.638-0.264l0.061,0.025c1.051,0.453,1.663,0.683,1.822,0.683
	c0.064,0,0.141-0.028,0.185-0.073l1.054-1.052c0.133-0.135,0.188-0.19-0.643-1.975l-0.031-0.067l0.26-0.63l0.062-0.024
	C21,15.471,21,15.4,21,15.209v-1.483C21,13.535,21,13.457,19.146,12.781z M14,16.906c-1.327,0-2.406-1.08-2.406-2.407
	c0-1.328,1.079-2.406,2.406-2.406c1.326,0,2.405,1.079,2.405,2.406C16.405,15.826,15.326,16.906,14,16.906z"/>
</svg>
