<?xml version="1.0" encoding="iso-8859-1"?>
<!-- Generator: Adobe Illustrator 16.0.4, SVG Export Plug-In . SVG Version: 6.00 Build 0)  -->
<!DOCTYPE svg PUBLIC "-//W3C//DTD SVG 1.1//EN" "http://www.w3.org/Graphics/SVG/1.1/DTD/svg11.dtd">
<svg version="1.1" id="Layer_1" xmlns="http://www.w3.org/2000/svg" xmlns:xlink="http://www.w3.org/1999/xlink" x="0px" y="0px"
	 width="28.35px" height="28.35px" viewBox="0 0 28.35 28.35" style="enable-background:new 0 0 28.35 28.35;" xml:space="preserve"
	>
<path d="M20.745,11.979l-0.085-0.031l-0.333-0.809l0.036-0.083c1.006-2.329,0.938-2.398,0.771-2.567l-1.342-1.336
	c-0.056-0.055-0.152-0.095-0.235-0.095c-0.075,0-0.303,0-2.285,0.916l-0.08,0.037l-0.816-0.336l-0.034-0.083
	c-0.932-2.356-1.027-2.356-1.26-2.356h-1.895c-0.231,0-0.337,0-1.201,2.36l-0.033,0.086L11.141,8.02l-0.079-0.033
	C9.72,7.41,8.937,7.117,8.733,7.117c-0.083,0-0.18,0.038-0.234,0.094l-1.343,1.34c-0.17,0.171-0.242,0.243,0.818,2.523l0.039,0.085
	l-0.333,0.808L7.598,12c-2.363,0.931-2.363,1.022-2.363,1.265v1.895c0,0.244,0,0.344,2.367,1.211l0.084,0.029l0.333,0.807
	l-0.035,0.083c-1.006,2.329-0.943,2.391-0.772,2.565l1.34,1.339c0.056,0.056,0.153,0.096,0.236,0.096c0.075,0,0.303,0,2.287-0.917
	l0.08-0.038l0.818,0.339l0.033,0.082c0.933,2.355,1.027,2.355,1.26,2.355h1.895c0.238,0,0.337,0,1.202-2.361l0.032-0.086
	l0.814-0.337l0.077,0.032c1.342,0.578,2.124,0.871,2.327,0.871c0.082,0,0.18-0.036,0.235-0.093l1.346-1.343
	c0.169-0.173,0.239-0.243-0.821-2.521l-0.039-0.086l0.331-0.805l0.08-0.03c2.365-0.938,2.365-1.028,2.365-1.272v-1.893
	C23.111,12.943,23.111,12.842,20.745,11.979z M14.174,17.246c-1.694,0-3.072-1.379-3.072-3.072c0-1.695,1.378-3.072,3.072-3.072
	c1.693,0,3.071,1.378,3.071,3.072C17.245,15.867,15.867,17.246,14.174,17.246z"/>
</svg>
