<?xml version="1.0" encoding="utf-8"?>
<!-- Generator: Adobe Illustrator 16.0.4, SVG Export Plug-In . SVG Version: 6.00 Build 0)  -->
<!DOCTYPE svg PUBLIC "-//W3C//DTD SVG 1.1//EN" "http://www.w3.org/Graphics/SVG/1.1/DTD/svg11.dtd">
<svg version="1.1" id="Layer_1" xmlns="http://www.w3.org/2000/svg" xmlns:xlink="http://www.w3.org/1999/xlink" x="0px" y="0px"
	 width="28.35px" height="28.35px" viewBox="0 0 28.35 28.35" enable-background="new 0 0 28.35 28.35" xml:space="preserve">
<path fill="#010202" d="M21.376,19.07c-0.533-0.929-1.382-1.609-2.33-1.867c-0.645-0.176-1.3-0.144-1.868,0.088l-1.671-2.923
	c1.484-2.726,3.685-6.76,3.961-7.244c0.68-1.188-0.436-2.505-0.483-2.56l-0.323-0.375l-4.487,7.849L9.686,4.189L9.362,4.564
	C9.313,4.62,8.2,5.937,8.878,7.124c0.277,0.485,2.478,4.519,3.963,7.245l-1.671,2.923c-0.57-0.231-1.225-0.265-1.87-0.089
	c-0.948,0.259-1.796,0.939-2.329,1.868c-1,1.749-0.598,3.868,0.899,4.725c0.418,0.24,0.881,0.362,1.377,0.362
	c0.272,0,0.554-0.021,0.823-0.113c1.604-0.545,2.426-1.856,2.819-3.202c0.017-0.059,0.808-3.265,1.25-3.964
	c0,0,0.014-0.024,0.034-0.062c0.02,0.038,0.034,0.062,0.034,0.062c0.441,0.699,1.234,3.905,1.25,3.964
	c0.394,1.346,1.216,2.658,2.819,3.202c0.27,0.092,0.552,0.113,0.824,0.113c0.495,0,0.958-0.122,1.377-0.362
	C21.973,22.939,22.375,20.819,21.376,19.07z M11.104,21.437c-0.333,0.581-0.866,1.018-1.425,1.17c-0.147,0.04-0.292,0.06-0.431,0.06
	c-0.232,0-0.446-0.056-0.635-0.164c-0.783-0.447-0.939-1.655-0.347-2.691c0.337-0.588,0.857-1.013,1.424-1.168
	c0.387-0.104,0.762-0.071,1.068,0.104C11.541,19.195,11.696,20.402,11.104,21.437z M19.733,22.502
	c-0.19,0.108-0.404,0.164-0.636,0.164c-0.139,0-0.284-0.02-0.431-0.06c-0.56-0.151-1.093-0.589-1.425-1.169
	c-0.592-1.035-0.437-2.242,0.345-2.688c0.307-0.177,0.682-0.211,1.068-0.104c0.567,0.154,1.087,0.579,1.424,1.167
	C20.672,20.847,20.516,22.055,19.733,22.502z"/>
</svg>
