<?xml version="1.0" encoding="utf-8"?>
<!-- Generator: Adobe Illustrator 16.0.4, SVG Export Plug-In . SVG Version: 6.00 Build 0)  -->
<!DOCTYPE svg PUBLIC "-//W3C//DTD SVG 1.1//EN" "http://www.w3.org/Graphics/SVG/1.1/DTD/svg11.dtd">
<svg version="1.1" id="Layer_1" xmlns="http://www.w3.org/2000/svg" xmlns:xlink="http://www.w3.org/1999/xlink" x="0px" y="0px"
	 width="28.35px" height="28.35px" viewBox="0 0 28.35 28.35" enable-background="new 0 0 28.35 28.35" xml:space="preserve">
<g>
	<path d="M6.881,5.989h14.583l0.023,4.885H20.79c-0.228-1.748-0.883-2.93-1.963-3.547c-0.606-0.34-1.514-0.525-2.721-0.558v12.759
		c0,0.892,0.156,1.484,0.468,1.776c0.311,0.291,0.96,0.438,1.945,0.438v0.615H9.886v-0.615c0.946,0,1.576-0.147,1.887-0.444
		c0.311-0.296,0.467-0.885,0.467-1.77V6.769c-1.183,0.032-2.089,0.218-2.721,0.558C8.36,7.959,7.706,9.142,7.556,10.874H6.858
		L6.881,5.989z"/>
</g>
</svg>
