<?xml version="1.0" encoding="utf-8"?>
<!-- Generator: Adobe Illustrator 16.0.4, SVG Export Plug-In . SVG Version: 6.00 Build 0)  -->
<!DOCTYPE svg PUBLIC "-//W3C//DTD SVG 1.1//EN" "http://www.w3.org/Graphics/SVG/1.1/DTD/svg11.dtd">
<svg version="1.1" id="Layer_1" xmlns="http://www.w3.org/2000/svg" xmlns:xlink="http://www.w3.org/1999/xlink" x="0px" y="0px"
	 width="28.35px" height="28.35px" viewBox="0 0 28.35 28.35" enable-background="new 0 0 28.35 28.35" xml:space="preserve">
<g>
	<path d="M14.173,9.663c3.069,0,5.559-1.03,5.579-2.302c-0.021-1.273-2.51-2.302-5.579-2.302S8.615,6.088,8.594,7.361
		C8.615,8.633,11.104,9.663,14.173,9.663z"/>
	<path d="M14.173,11.163c-2.054,0-4.197-0.438-5.581-1.355v11.179c0,0.01,0.005,0.018,0.005,0.026
		c0.057,1.26,2.529,2.274,5.575,2.274c3.046,0,5.519-1.015,5.576-2.274c0-0.009,0.005-0.017,0.005-0.026V9.808
		C18.37,10.726,16.227,11.163,14.173,11.163z"/>
</g>
</svg>
