<?xml version="1.0" encoding="utf-8"?>
<!-- Generator: Adobe Illustrator 16.0.4, SVG Export Plug-In . SVG Version: 6.00 Build 0)  -->
<!DOCTYPE svg PUBLIC "-//W3C//DTD SVG 1.1//EN" "http://www.w3.org/Graphics/SVG/1.1/DTD/svg11.dtd">
<svg version="1.1" id="Layer_1" xmlns="http://www.w3.org/2000/svg" xmlns:xlink="http://www.w3.org/1999/xlink" x="0px" y="0px"
	 width="28.35px" height="28.35px" viewBox="0 0 28.35 28.35" enable-background="new 0 0 28.35 28.35" xml:space="preserve">
<g>
	<path fill="#010202" d="M22.174,4.365h-16c-0.915,0-1.655,0.74-1.655,1.652v16.311c0,0.914,0.741,1.654,1.655,1.654h16
		c0.913,0,1.654-0.74,1.654-1.654V6.018C23.828,5.105,23.087,4.365,22.174,4.365z M13.345,22.328H6.174v-0.001v-11.62h7.171V22.328z
		 M13.345,9.051H6.174V6.019h7.171V9.051z M22.174,22.328h-7.173V10.707h7.173V22.328z M22.174,9.051h-7.173V6.019h7.173V9.051z"/>
	<rect x="7.174" y="11.822" fill="#010202" width="5.173" height="3.479"/>
	<rect x="16.001" y="16.489" fill="#010202" width="5.173" height="3.479"/>
</g>
</svg>
