<?xml version="1.0" encoding="utf-8"?>
<!-- Generator: Adobe Illustrator 16.0.4, SVG Export Plug-In . SVG Version: 6.00 Build 0)  -->
<!DOCTYPE svg PUBLIC "-//W3C//DTD SVG 1.1//EN" "http://www.w3.org/Graphics/SVG/1.1/DTD/svg11.dtd">
<svg version="1.1" id="Layer_1" xmlns="http://www.w3.org/2000/svg" xmlns:xlink="http://www.w3.org/1999/xlink" x="0px" y="0px"
	 width="28.35px" height="28.35px" viewBox="0 0 28.35 28.35" enable-background="new 0 0 28.35 28.35" xml:space="preserve">
<path d="M20.688,9.821c-0.008,0-0.015,0.002-0.022,0.002c-0.005,0-0.009-0.002-0.013-0.002H7.802c-0.018,0-0.033,0.008-0.05,0.009
	c-0.032,0-0.062-0.009-0.094-0.009c-2.404,0-4.353,1.949-4.353,4.352c0,2.404,1.949,4.353,4.353,4.353
	c0.032,0,0.062-0.009,0.094-0.01c0.017,0.002,0.032,0.01,0.05,0.01h12.852c0.004,0,0.008-0.002,0.013-0.002
	c0.008,0,0.015,0.002,0.022,0.002c2.403,0,4.353-1.948,4.353-4.353C25.041,11.77,23.092,9.821,20.688,9.821z"/>
</svg>
