<?xml version="1.0" encoding="utf-8"?>
<!-- Generator: Adobe Illustrator 16.0.4, SVG Export Plug-In . SVG Version: 6.00 Build 0)  -->
<!DOCTYPE svg PUBLIC "-//W3C//DTD SVG 1.1//EN" "http://www.w3.org/Graphics/SVG/1.1/DTD/svg11.dtd">
<svg version="1.1" id="Layer_1" xmlns="http://www.w3.org/2000/svg" xmlns:xlink="http://www.w3.org/1999/xlink" x="0px" y="0px"
	 width="28.35px" height="28.35px" viewBox="0 0 28.35 28.35" enable-background="new 0 0 28.35 28.35" xml:space="preserve">
<path d="M14.173,4.173c-5.524,0-10,4.477-10,10c0,5.521,4.477,10,10,10c5.521,0,10.001-4.479,10.001-10
	C24.174,8.65,19.696,4.173,14.173,4.173z M11.408,19.744l-1.937-0.011c-0.265,0-0.434-0.104-0.434-0.402c0,0-0.012-1.968,0-1.977
	l2.392,2.381C11.418,19.736,11.418,19.744,11.408,19.744z M12.034,19.208l-2.482-2.482l5.861-5.903l2.48,2.479L12.034,19.208z
	 M19.705,11.471l-1.097,1.105l-2.47-2.483l1.096-1.106c0.303-0.302,0.793-0.302,1.096,0l1.375,1.386
	C20.007,10.677,20.007,11.169,19.705,11.471z"/>
</svg>
