<?xml version="1.0" encoding="utf-8"?>
<!-- Generator: Adobe Illustrator 16.0.4, SVG Export Plug-In . SVG Version: 6.00 Build 0)  -->
<!DOCTYPE svg PUBLIC "-//W3C//DTD SVG 1.1//EN" "http://www.w3.org/Graphics/SVG/1.1/DTD/svg11.dtd">
<svg version="1.1" id="Layer_1" xmlns="http://www.w3.org/2000/svg" xmlns:xlink="http://www.w3.org/1999/xlink" x="0px" y="0px"
	 width="28.35px" height="28.35px" viewBox="0 0 28.35 28.35" enable-background="new 0 0 28.35 28.35" xml:space="preserve">
<g>
	<path d="M8.09,14.143l6.806,6.805L24.844,11L18.04,4.194L8.09,14.143z M15.039,18.881L10.161,14l7.735-7.735l4.879,4.879
		L15.039,18.881z"/>
	<path d="M3.562,18.671l5.422,5.421c0.045,0.044,0.108,0.067,0.169,0.057h2.78c0.045-0.006,0.086-0.034,0.118-0.068l2.174-2.173
		c0.081-0.08,0.081-0.208,0-0.288l-6.806-6.805c-0.077-0.082-0.206-0.082-0.286,0l-3.57,3.571
		C3.482,18.465,3.482,18.593,3.562,18.671z"/>
</g>
</svg>
