<?xml version="1.0" encoding="utf-8"?>
<!-- Generator: Adobe Illustrator 16.0.4, SVG Export Plug-In . SVG Version: 6.00 Build 0)  -->
<!DOCTYPE svg PUBLIC "-//W3C//DTD SVG 1.1//EN" "http://www.w3.org/Graphics/SVG/1.1/DTD/svg11.dtd">
<svg version="1.1" id="Layer_1" xmlns="http://www.w3.org/2000/svg" xmlns:xlink="http://www.w3.org/1999/xlink" x="0px" y="0px"
	 width="28.35px" height="28.35px" viewBox="0 0 28.35 28.35" enable-background="new 0 0 28.35 28.35" xml:space="preserve">
<g>
	<path fill="#010202" d="M16.373,16.877h-4.402L11.291,4.252h5.766L16.373,16.877z M11.344,21.547c0-0.811,0.239-1.441,0.72-1.892
		c0.483-0.447,1.18-0.67,2.096-0.67c0.907,0,1.593,0.223,2.061,0.67c0.469,0.45,0.699,1.081,0.699,1.892
		c0,0.801-0.239,1.426-0.726,1.873c-0.483,0.45-1.164,0.675-2.034,0.675c-0.881,0-1.57-0.225-2.069-0.675
		C11.594,22.973,11.344,22.348,11.344,21.547z"/>
</g>
</svg>
