<?xml version="1.0" encoding="utf-8"?>
<!-- Generator: Adobe Illustrator 16.0.4, SVG Export Plug-In . SVG Version: 6.00 Build 0)  -->
<!DOCTYPE svg PUBLIC "-//W3C//DTD SVG 1.1//EN" "http://www.w3.org/Graphics/SVG/1.1/DTD/svg11.dtd">
<svg version="1.1" id="Layer_1" xmlns="http://www.w3.org/2000/svg" xmlns:xlink="http://www.w3.org/1999/xlink" x="0px" y="0px"
	 width="28.35px" height="28.35px" viewBox="0 0 28.35 28.35" enable-background="new 0 0 28.35 28.35" xml:space="preserve">
<path d="M21.571,6.185c-0.152-0.22-0.361-0.381-0.626-0.48c-0.166-0.071-0.341-0.107-0.521-0.107H7.924
	c-0.183,0-0.358,0.036-0.524,0.106C7.138,5.804,6.928,5.965,6.773,6.185C6.618,6.405,6.54,6.648,6.54,6.915v15.171
	c0,0.267,0.078,0.511,0.231,0.729c0.155,0.222,0.364,0.38,0.626,0.481c0.167,0.071,0.344,0.104,0.524,0.104
	c0.374,0,0.704-0.13,0.99-0.388l5.259-4.991l5.259,4.991c0.278,0.251,0.607,0.376,0.99,0.376c0.198,0,0.374-0.031,0.522-0.095
	c0.265-0.104,0.474-0.262,0.626-0.481c0.155-0.22,0.233-0.464,0.233-0.729V6.915C21.804,6.648,21.726,6.405,21.571,6.185z
	 M19.803,20.191l-5.63-5.168l-5.632,5.168l0-12.594h11.261V20.191z"/>
</svg>
