<?xml version="1.0" encoding="iso-8859-1"?>
<!-- Generator: Adobe Illustrator 16.0.4, SVG Export Plug-In . SVG Version: 6.00 Build 0)  -->
<!DOCTYPE svg PUBLIC "-//W3C//DTD SVG 1.1//EN" "http://www.w3.org/Graphics/SVG/1.1/DTD/svg11.dtd">
<svg version="1.1" id="Layer_1" xmlns="http://www.w3.org/2000/svg" xmlns:xlink="http://www.w3.org/1999/xlink" x="0px" y="0px"
	 width="28.35px" height="28.35px" viewBox="0 0 28.35 28.35" style="enable-background:new 0 0 28.35 28.35;" xml:space="preserve"
	>
<path d="M20.422,5.596H7.924c-0.183,0-0.358,0.036-0.524,0.106C7.138,5.804,6.928,5.965,6.773,6.185
	c-0.155,0.22-0.233,0.463-0.233,0.73v15.171c0,0.267,0.078,0.511,0.233,0.73c0.155,0.22,0.364,0.38,0.626,0.481
	c0.167,0.071,0.342,0.106,0.524,0.106c0.374,0,0.704-0.13,0.99-0.388l5.259-4.991l5.259,4.991c0.278,0.251,0.607,0.376,0.99,0.376
	c0.198,0,0.374-0.031,0.524-0.095c0.263-0.102,0.472-0.262,0.626-0.481c0.155-0.22,0.233-0.464,0.233-0.73V6.915
	c0-0.267-0.078-0.51-0.233-0.73c-0.154-0.22-0.363-0.381-0.626-0.482C20.779,5.632,20.604,5.596,20.422,5.596L20.422,5.596"/>
</svg>
