<?xml version="1.0" encoding="utf-8"?>
<!-- Generator: Adobe Illustrator 16.0.4, SVG Export Plug-In . SVG Version: 6.00 Build 0)  -->
<!DOCTYPE svg PUBLIC "-//W3C//DTD SVG 1.1//EN" "http://www.w3.org/Graphics/SVG/1.1/DTD/svg11.dtd">
<svg version="1.1" id="Layer_1" xmlns="http://www.w3.org/2000/svg" xmlns:xlink="http://www.w3.org/1999/xlink" x="0px" y="0px"
	 width="28.35px" height="28.35px" viewBox="0 0 28.35 28.35" enable-background="new 0 0 28.35 28.35" xml:space="preserve">
<g>
	<path fill="#010202" d="M15.782,5.208H8.464c-0.915,0-1.655,0.741-1.655,1.651v1.839h12.464L15.782,5.208z"/>
	<path fill="#010202" d="M8.464,22.827h11c0.913,0,1.653-0.74,1.654-1.654H6.809C6.809,22.087,7.55,22.827,8.464,22.827z"/>
	<path fill="#010202" d="M9.317,12.847H7.644v1.672h1.673c0.502,0,0.835-0.336,0.835-0.838C10.152,13.182,9.819,12.847,9.317,12.847
		z"/>
	<path fill="#010202" d="M14.332,12.847h-1.67v4.18h1.67c0.502,0,0.836-0.336,0.836-0.838v-2.508
		C15.168,13.182,14.834,12.847,14.332,12.847z"/>
	<path fill="#010202" d="M21.118,10.354H6.809v0c-0.914,0-1.655,0.741-1.655,1.655v5.854c0,0.913,0.741,1.654,1.655,1.654h14.31
		c0.914,0,1.655-0.742,1.655-1.656v-5.854C22.773,11.095,22.032,10.354,21.118,10.354z M9.317,15.355H7.644v2.508H6.809v-4.182
		v-1.672h2.508c0.919,0,1.672,0.754,1.672,1.672C10.989,14.602,10.236,15.355,9.317,15.355z M16.004,16.189
		c0,0.92-0.75,1.674-1.672,1.674h-2.507v-5.854h2.507c0.922,0,1.672,0.754,1.672,1.672V16.189z M21.021,12.847h-3.344v1.672h2.506
		v0.836h-2.506v2.508h-0.836v-5.854h4.18V12.847z"/>
</g>
</svg>
