<?xml version="1.0" encoding="utf-8"?>
<!-- Generator: Adobe Illustrator 16.0.4, SVG Export Plug-In . SVG Version: 6.00 Build 0)  -->
<!DOCTYPE svg PUBLIC "-//W3C//DTD SVG 1.1//EN" "http://www.w3.org/Graphics/SVG/1.1/DTD/svg11.dtd">
<svg version="1.1" id="Layer_1" xmlns="http://www.w3.org/2000/svg" xmlns:xlink="http://www.w3.org/1999/xlink" x="0px" y="0px"
	 width="28.35px" height="28.35px" viewBox="0 0 28.35 28.35" enable-background="new 0 0 28.35 28.35" xml:space="preserve">
<g>
	<rect x="10.222" y="12.407" fill="#010202" width="2.861" height="1.758"/>
	<rect x="10.222" y="15.925" fill="#010202" width="2.861" height="1.759"/>
	<path fill="#010202" d="M15.782,5.208H8.464c-0.915,0-1.655,0.741-1.655,1.651v14.312c0,0.914,0.741,1.655,1.655,1.655h11
		c0.913,0,1.654-0.741,1.654-1.655V10.544L15.782,5.208z M19.464,10.928v1.479v5.276v1.479v0.28H8.463v-0.28v-1.479v-5.276v-1.479
		v-0.28h11.001V10.928z"/>
	<rect x="14.843" y="12.407" fill="#010202" width="2.861" height="1.758"/>
	<rect x="14.843" y="15.925" fill="#010202" width="2.861" height="1.759"/>
</g>
</svg>
