<?xml version="1.0" encoding="iso-8859-1"?>
<!-- Generator: Adobe Illustrator 16.0.4, SVG Export Plug-In . SVG Version: 6.00 Build 0)  -->
<!DOCTYPE svg PUBLIC "-//W3C//DTD SVG 1.1//EN" "http://www.w3.org/Graphics/SVG/1.1/DTD/svg11.dtd">
<svg version="1.1" id="Layer_1" xmlns="http://www.w3.org/2000/svg" xmlns:xlink="http://www.w3.org/1999/xlink" x="0px" y="0px"
	 width="28.35px" height="28.35px" viewBox="0 0 28.35 28.35" style="enable-background:new 0 0 28.35 28.35;" xml:space="preserve"
	>
<path d="M20.083,9.007c1.346,0,2.553-0.732,3.378-1.286v10.481c-0.825,0.554-2.032,1.286-3.378,1.286s-2.554-0.399-3.378-0.953
	c-0.825-0.554-2.033-0.953-3.378-0.953c-1.346,0-2.553,0.686-3.378,1.239V8.34c0.826-0.554,2.033-1.238,3.378-1.238
	c1.345,0,2.553,0.398,3.378,0.953C17.529,8.609,18.737,9.007,20.083,9.007z M7.696,5.976c0.622,0,1.126,0.504,1.126,1.126v16.89
	H6.57V7.102C6.57,6.48,7.074,5.976,7.696,5.976z"/>
</svg>
