<?xml version="1.0" encoding="utf-8"?>
<!-- Generator: Adobe Illustrator 16.0.4, SVG Export Plug-In . SVG Version: 6.00 Build 0)  -->
<!DOCTYPE svg PUBLIC "-//W3C//DTD SVG 1.1//EN" "http://www.w3.org/Graphics/SVG/1.1/DTD/svg11.dtd">
<svg version="1.1" id="Layer_1" xmlns="http://www.w3.org/2000/svg" xmlns:xlink="http://www.w3.org/1999/xlink" x="0px" y="0px"
	 width="28.35px" height="28.35px" viewBox="0 0 28.35 28.35" enable-background="new 0 0 28.35 28.35" xml:space="preserve">
<path fill="#010202" d="M22.748,4.691h-8.575H5.598c-0.501,0-0.908,0.406-0.908,0.907v8.576v8.575c0,0.502,0.407,0.907,0.908,0.907
	h8.575h8.575c0.502,0,0.908-0.405,0.908-0.907v-8.575V5.598C23.656,5.097,23.25,4.691,22.748,4.691z M21.841,13.265H15.08v-6.76
	h6.761V13.265z M6.505,6.505h6.761v6.76H6.505V6.505z M6.505,15.08h6.761v6.761H6.505V15.08z M21.841,21.841H15.08V15.08h6.761
	V21.841z"/>
</svg>
