<?xml version="1.0" encoding="utf-8"?>
<!-- Generator: Adobe Illustrator 16.0.4, SVG Export Plug-In . SVG Version: 6.00 Build 0)  -->
<!DOCTYPE svg PUBLIC "-//W3C//DTD SVG 1.1//EN" "http://www.w3.org/Graphics/SVG/1.1/DTD/svg11.dtd">
<svg version="1.1" id="Layer_1" xmlns="http://www.w3.org/2000/svg" xmlns:xlink="http://www.w3.org/1999/xlink" x="0px" y="0px"
	 width="28.35px" height="28.35px" viewBox="0 0 28.35 28.35" enable-background="new 0 0 28.35 28.35" xml:space="preserve">
<path d="M10.233,6.006c0-0.3-0.24-0.541-0.54-0.541H6.055c-0.299,0-0.54,0.241-0.54,0.541v3.639c0,0.299,0.241,0.54,0.54,0.54h3.64
	c0.299,0,0.54-0.241,0.54-0.54V6.006H10.233z"/>
<path d="M16.531,6.006c0-0.3-0.242-0.541-0.541-0.541h-3.637c-0.3,0-0.542,0.241-0.542,0.541v3.639c0,0.299,0.242,0.54,0.542,0.54
	h3.637c0.299,0,0.541-0.241,0.541-0.54V6.006z"/>
<path d="M22.829,6.006c0-0.3-0.24-0.541-0.541-0.541h-3.638c-0.298,0-0.54,0.241-0.54,0.541v3.639c0,0.299,0.242,0.54,0.54,0.54
	h3.64c0.3,0,0.541-0.241,0.541-0.54V6.006H22.829z"/>
<path d="M10.233,12.337c0-0.299-0.24-0.54-0.54-0.54H6.055c-0.299,0-0.54,0.241-0.54,0.54v3.637c0,0.3,0.241,0.541,0.54,0.541h3.64
	c0.299,0,0.54-0.241,0.54-0.541v-3.637H10.233z"/>
<path d="M16.531,12.337c0-0.299-0.242-0.54-0.541-0.54h-3.637c-0.3,0-0.542,0.241-0.542,0.54v3.637c0,0.3,0.242,0.541,0.542,0.541
	h3.637c0.299,0,0.541-0.241,0.541-0.541V12.337z"/>
<path d="M22.829,12.337c0-0.299-0.24-0.54-0.541-0.54h-3.638c-0.298,0-0.54,0.241-0.54,0.54v3.637c0,0.3,0.242,0.541,0.54,0.541
	h3.64c0.3,0,0.541-0.241,0.541-0.541v-3.637H22.829z"/>
<path d="M9.693,18.127H6.055c-0.299,0-0.54,0.242-0.54,0.54v3.64c0,0.3,0.241,0.541,0.54,0.541h3.64c0.299,0,0.54-0.241,0.54-0.541
	v-3.64C10.233,18.37,9.992,18.127,9.693,18.127z"/>
<path d="M15.99,18.127h-3.637c-0.3,0-0.542,0.242-0.542,0.54v3.64c0,0.3,0.242,0.541,0.542,0.541h3.637
	c0.299,0,0.541-0.241,0.541-0.541v-3.64C16.531,18.37,16.289,18.127,15.99,18.127z"/>
<path d="M22.288,18.127h-3.638c-0.298,0-0.54,0.242-0.54,0.54v3.64c0,0.3,0.242,0.541,0.54,0.541h3.64
	c0.3,0,0.541-0.241,0.541-0.541v-3.64C22.829,18.37,22.589,18.127,22.288,18.127z"/>
</svg>
