<?xml version="1.0" encoding="utf-8"?>
<!-- Generator: Adobe Illustrator 16.0.4, SVG Export Plug-In . SVG Version: 6.00 Build 0)  -->
<!DOCTYPE svg PUBLIC "-//W3C//DTD SVG 1.1//EN" "http://www.w3.org/Graphics/SVG/1.1/DTD/svg11.dtd">
<svg version="1.1" xmlns="http://www.w3.org/2000/svg" xmlns:xlink="http://www.w3.org/1999/xlink" x="0px" y="0px" width="28.35px"
	 height="28.35px" viewBox="0 0 28.35 28.35" enable-background="new 0 0 28.35 28.35" xml:space="preserve">
<g id="Layer_1">
</g>
<g id="Layer_2">
	<g>
		<path d="M14.175,4.174c-3.697,0-6.907,2.015-8.631,5L3.206,6.836v6.814h6.815l-2.616-2.616c1.184-2.556,3.767-4.33,6.77-4.33
			c4.124,0,7.468,3.344,7.468,7.468s-3.344,7.468-7.468,7.468c-2.766,0-5.174-1.507-6.465-3.741H4.9
			c1.479,3.675,5.07,6.272,9.274,6.272c5.522,0,9.999-4.477,9.999-10C24.174,8.651,19.697,4.174,14.175,4.174z"/>
		<polygon points="12.629,9.464 12.629,14.754 12.628,14.755 12.629,14.756 12.629,14.761 12.639,14.761 17.344,17.169 
			18.221,15.453 14.556,13.577 14.556,9.464 		"/>
	</g>
</g>
</svg>
