<?xml version="1.0" encoding="iso-8859-1"?>
<!-- Generator: Adobe Illustrator 16.0.4, SVG Export Plug-In . SVG Version: 6.00 Build 0)  -->
<!DOCTYPE svg PUBLIC "-//W3C//DTD SVG 1.1//EN" "http://www.w3.org/Graphics/SVG/1.1/DTD/svg11.dtd">
<svg version="1.1" id="Layer_1" xmlns="http://www.w3.org/2000/svg" xmlns:xlink="http://www.w3.org/1999/xlink" x="0px" y="0px"
	 width="28.35px" height="28.35px" viewBox="0 0 28.35 28.35" style="enable-background:new 0 0 28.35 28.35;" xml:space="preserve"
	>
<path style="fill:#010202;" d="M23.107,13.955c0.338-0.373,0.305-0.943-0.074-1.275l-8.349-7.305
	c-0.379-0.332-0.987-0.325-1.357,0.016L4.95,13.07c-0.371,0.341-0.39,0.91-0.041,1.271l0.21,0.22
	c0.349,0.363,0.912,0.407,1.257,0.098l0.626-0.562v8.21c0,0.502,0.408,0.908,0.911,0.908h3.266c0.503,0,0.911-0.406,0.911-0.908
	v-5.743h4.167v5.743c-0.01,0.502,0.352,0.908,0.854,0.908h3.461c0.504,0,0.91-0.406,0.91-0.908v-8.096c0,0,0.173,0.153,0.387,0.341
	c0.212,0.186,0.66,0.036,0.999-0.338L23.107,13.955z"/>
</svg>
