<?xml version="1.0" encoding="utf-8"?>
<!-- Generator: Adobe Illustrator 16.0.4, SVG Export Plug-In . SVG Version: 6.00 Build 0)  -->
<!DOCTYPE svg PUBLIC "-//W3C//DTD SVG 1.1//EN" "http://www.w3.org/Graphics/SVG/1.1/DTD/svg11.dtd">
<svg version="1.1" id="Layer_1" xmlns="http://www.w3.org/2000/svg" xmlns:xlink="http://www.w3.org/1999/xlink" x="0px" y="0px"
	 width="28.35px" height="28.35px" viewBox="0 0 28.35 28.35" enable-background="new 0 0 28.35 28.35" xml:space="preserve">
<g>
	<path fill="#010202" d="M14.166,16.52l4.414-5.094c0,0,0.257-0.678-0.656-0.678c-0.258,0-0.907,0-1.721,0V6.674
		c0-0.375-0.305-0.68-0.679-0.68h-2.716c-0.375,0-0.68,0.305-0.68,0.68v4.074c-0.843-0.001-1.498-0.001-1.695-0.001
		c-0.871,0-0.68,0.678-0.68,0.678L14.166,16.52z"/>
	<path fill="#010202" d="M23.533,16.883c-0.393-0.418-2.29-2.277-3.156-3.125c-0.216-0.21-0.508-0.354-0.822-0.403l-1.631,1.882
		h1.814l2.045,2.313H18.23c-0.101,0-0.193,0.052-0.239,0.134l-0.819,2.038h-5.996l-0.818-2.038c-0.047-0.082-0.138-0.134-0.24-0.134
		H6.566l2.044-2.313h1.799l-1.628-1.881c-0.31,0.051-0.596,0.194-0.808,0.401c-0.868,0.848-2.765,2.707-3.157,3.125
		c-0.49,0.521-0.759,0.938-0.631,1.452l0.562,3.08c0.127,0.516,0.692,0.938,1.254,0.938h16.347c0.563,0,1.127-0.422,1.255-0.938
		l0.562-3.08C24.292,17.82,24.023,17.404,23.533,16.883z"/>
</g>
</svg>
