<?xml version="1.0" encoding="utf-8"?>
<!-- Generator: Adobe Illustrator 16.0.4, SVG Export Plug-In . SVG Version: 6.00 Build 0)  -->
<!DOCTYPE svg PUBLIC "-//W3C//DTD SVG 1.1//EN" "http://www.w3.org/Graphics/SVG/1.1/DTD/svg11.dtd">
<svg version="1.1" id="Layer_1" xmlns="http://www.w3.org/2000/svg" xmlns:xlink="http://www.w3.org/1999/xlink" x="0px" y="0px"
	 width="28.35px" height="28.35px" viewBox="0 0 28.35 28.35" enable-background="new 0 0 28.35 28.35" xml:space="preserve">
<path fill="#010202" d="M17.632,22.864c-0.812,0.321-1.46,0.564-1.946,0.733C15.203,23.766,14.64,23.85,14,23.85
	c-0.984,0-1.75-0.24-2.296-0.72c-0.545-0.479-0.816-1.089-0.816-1.827c0-0.287,0.02-0.583,0.06-0.881
	c0.042-0.3,0.107-0.637,0.197-1.015l1.017-3.594c0.089-0.346,0.167-0.673,0.229-0.978c0.061-0.308,0.09-0.59,0.09-0.847
	c0-0.457-0.094-0.778-0.283-0.958c-0.191-0.181-0.551-0.269-1.087-0.269c-0.262,0-0.531,0.039-0.808,0.121
	c-0.274,0.084-0.513,0.16-0.708,0.235l0.269-1.106c0.666-0.272,1.303-0.504,1.912-0.697c0.608-0.195,1.183-0.291,1.725-0.291
	c0.977,0,1.731,0.237,2.262,0.708c0.527,0.472,0.794,1.085,0.794,1.84c0,0.156-0.019,0.432-0.056,0.825
	c-0.035,0.394-0.104,0.754-0.203,1.083l-1.012,3.582c-0.082,0.288-0.156,0.617-0.224,0.985c-0.065,0.367-0.098,0.647-0.098,0.838
	c0,0.475,0.105,0.799,0.32,0.973c0.211,0.171,0.582,0.259,1.104,0.259c0.249,0,0.524-0.044,0.838-0.131
	c0.312-0.085,0.535-0.16,0.677-0.227L17.632,22.864z M17.453,8.323c-0.472,0.438-1.041,0.657-1.706,0.657
	c-0.661,0-1.235-0.219-1.711-0.657c-0.473-0.439-0.712-0.973-0.712-1.596c0-0.622,0.241-1.156,0.712-1.599
	c0.476-0.444,1.05-0.665,1.711-0.665c0.665,0,1.234,0.221,1.706,0.665c0.471,0.443,0.708,0.977,0.708,1.599
	C18.161,7.352,17.924,7.884,17.453,8.323z"/>
</svg>
