<?xml version="1.0" encoding="utf-8"?>
<!-- Generator: Adobe Illustrator 16.0.4, SVG Export Plug-In . SVG Version: 6.00 Build 0)  -->
<!DOCTYPE svg PUBLIC "-//W3C//DTD SVG 1.1//EN" "http://www.w3.org/Graphics/SVG/1.1/DTD/svg11.dtd">
<svg version="1.1" id="Layer_1" xmlns="http://www.w3.org/2000/svg" xmlns:xlink="http://www.w3.org/1999/xlink" x="0px" y="0px"
	 width="28.35px" height="28.35px" viewBox="0 0 28.35 28.35" enable-background="new 0 0 28.35 28.35" xml:space="preserve">
<g id="Layer_1_1_" display="none">
	<path display="inline" d="M23.304,10.372l-2.583,1.223c1.034,2.235,0.716,4.94-0.962,6.883l-1.408-1.408v4.896h4.896L21.79,20.51
		C24.343,17.689,24.845,13.669,23.304,10.372z M7.665,21.615l-1.458,1.458v-4.897h4.896l-1.407,1.408
		c1.942,1.678,4.648,1.997,6.884,0.962l1.225,2.582C14.506,24.67,10.485,24.168,7.665,21.615z M7.629,16.404L5.046,17.63
		c-1.54-3.297-1.038-7.318,1.514-10.14L5.102,6.033h4.897v4.896L8.592,9.522C6.913,11.465,6.594,14.171,7.629,16.404z M17.245,9.824
		l1.406-1.407c-1.941-1.681-4.646-1.997-6.883-0.963l-1.224-2.582c3.297-1.541,7.315-1.039,10.139,1.513l1.457-1.458v4.896
		L17.245,9.824L17.245,9.824z M14.175,10.088c2.16,0,3.912,1.751,3.912,3.912c0,2.16-1.752,3.912-3.912,3.912
		c-2.161,0-3.912-1.752-3.912-3.912C10.263,11.839,12.014,10.088,14.175,10.088z"/>
</g>
<g>
	<path fill="#1D1D1B" d="M8.98,10.108c1.2-1.555,3.077-2.562,5.194-2.562l0,2.148l5.843-3.842l-0.007-0.004l0.001,0
		c-0.077-0.054-0.158-0.103-0.236-0.155L14.176,2.01l0,1.978c-2.831,0-5.387,1.165-7.224,3.037L8.98,10.108z"/>
	<path fill="#1D1D1B" d="M24.296,14.175c0.001-0.021,0.003-0.042,0.003-0.064c0-2.803-1.14-5.339-2.98-7.172l-3.077,2.024
		c1.521,1.203,2.499,3.059,2.499,5.148c0,0.021-0.003,0.042-0.003,0.062l-2.2,0l3.842,5.843l0.002-0.003l0.004,0.006
		c0.179-0.248,0.344-0.508,0.5-0.771l3.337-5.072L24.296,14.175z"/>
	<path fill="#1D1D1B" d="M10.114,19.263c-1.507-1.189-2.479-3.022-2.5-5.086l2.09,0L5.862,8.335l-3.843,5.84l2.036,0
		c0.017,2.779,1.152,5.292,2.981,7.112L10.114,19.263z"/>
	<path fill="#1D1D1B" d="M19.27,18.25c-1.204,1.479-3.037,2.426-5.093,2.426l0-2.139l-5.842,3.842l5.84,3.843l0-1.987
		c2.771,0,5.281-1.116,7.109-2.921L19.27,18.25z"/>
</g>
</svg>
