<?xml version="1.0" encoding="utf-8"?>
<!-- Generator: Adobe Illustrator 16.0.4, SVG Export Plug-In . SVG Version: 6.00 Build 0)  -->
<!DOCTYPE svg PUBLIC "-//W3C//DTD SVG 1.1//EN" "http://www.w3.org/Graphics/SVG/1.1/DTD/svg11.dtd">
<svg version="1.1" id="Layer_1" xmlns="http://www.w3.org/2000/svg" xmlns:xlink="http://www.w3.org/1999/xlink" x="0px" y="0px"
	 width="28.35px" height="28.35px" viewBox="0 0 28.35 28.35" enable-background="new 0 0 28.35 28.35" xml:space="preserve">
<g>
	<path d="M21.564,12.498h-9.785c-0.911,0-1.652,0.742-1.652,1.655v0.017v0.004v0.004v0.017c-0.001,0.912,0.74,1.654,1.655,1.654
		h9.783c0.913,0,1.654-0.742,1.654-1.655v-0.017v-0.004v-0.004v-0.016C23.22,13.24,22.479,12.498,21.564,12.498z"/>
	<path d="M21.564,5.477h-9.785c-0.911,0-1.652,0.742-1.652,1.656v0.016v0.004v0.005v0.017c-0.001,0.913,0.74,1.654,1.655,1.654
		h9.783c0.913,0,1.654-0.741,1.654-1.655V7.156V7.151V7.147V7.134C23.22,6.219,22.479,5.477,21.564,5.477z"/>
	<path d="M21.564,19.519h-9.785c-0.911,0-1.652,0.742-1.652,1.656v0.016v0.004v0.005v0.017c-0.001,0.913,0.74,1.654,1.655,1.654
		h9.783c0.913,0,1.654-0.741,1.654-1.655v-0.017v-0.005v-0.004v-0.015C23.22,20.261,22.479,19.519,21.564,19.519z"/>
	<path d="M8.127,8.247h-0.75v-3.01H6.57C6.563,5.334,6.539,5.416,6.497,5.48s-0.106,0.118-0.19,0.159
		C6.234,5.673,6.145,5.697,6.038,5.711C5.93,5.725,5.818,5.732,5.701,5.732v0.593h0.767v1.921H5.701v0.635h2.427V8.247z"/>
	<path d="M7.043,14.985c0.15-0.114,0.299-0.24,0.447-0.377c0.236-0.22,0.412-0.433,0.526-0.64c0.115-0.207,0.172-0.425,0.172-0.654
		c0-0.35-0.12-0.621-0.359-0.812c-0.239-0.191-0.587-0.287-1.042-0.287c-0.226,0-0.452,0.025-0.677,0.076
		c-0.226,0.05-0.396,0.101-0.512,0.151v0.808h0.078c0.142-0.096,0.295-0.175,0.46-0.237c0.166-0.062,0.323-0.093,0.473-0.093
		c0.2,0,0.354,0.045,0.46,0.135c0.107,0.091,0.16,0.219,0.16,0.385c0,0.138-0.042,0.278-0.125,0.42s-0.223,0.308-0.42,0.498
		c-0.132,0.128-0.307,0.282-0.526,0.459c-0.219,0.177-0.438,0.346-0.656,0.503v0.601h2.854v-0.695H6.724
		C6.787,15.181,6.894,15.101,7.043,14.985z"/>
	<path d="M8,21.165c-0.077-0.065-0.161-0.114-0.254-0.149c-0.093-0.033-0.181-0.057-0.264-0.068v-0.033
		c0.205-0.045,0.37-0.146,0.496-0.305c0.125-0.158,0.188-0.339,0.188-0.541c0-0.152-0.033-0.286-0.098-0.4
		c-0.065-0.113-0.165-0.211-0.298-0.29c-0.112-0.067-0.255-0.12-0.427-0.16s-0.374-0.06-0.603-0.06
		c-0.236,0-0.469,0.025-0.698,0.074c-0.229,0.05-0.411,0.102-0.544,0.155v0.788h0.09c0.167-0.099,0.341-0.175,0.52-0.228
		c0.179-0.054,0.345-0.079,0.498-0.079c0.062,0,0.136,0.004,0.222,0.014s0.161,0.029,0.225,0.059
		c0.057,0.026,0.104,0.062,0.142,0.106c0.038,0.045,0.056,0.104,0.056,0.177c0,0.1-0.018,0.175-0.054,0.227
		c-0.036,0.051-0.089,0.092-0.161,0.123c-0.068,0.029-0.151,0.048-0.249,0.057c-0.098,0.008-0.21,0.012-0.337,0.012H6.243v0.649h0.2
		c0.096,0,0.2,0.001,0.312,0.004c0.112,0.002,0.208,0.017,0.288,0.042s0.144,0.066,0.193,0.124s0.073,0.14,0.073,0.245
		c0,0.109-0.018,0.192-0.054,0.25c-0.036,0.059-0.084,0.107-0.144,0.148c-0.077,0.052-0.17,0.086-0.281,0.101
		c-0.111,0.016-0.213,0.023-0.308,0.023c-0.161,0-0.339-0.03-0.534-0.093c-0.194-0.062-0.361-0.135-0.501-0.22H5.393v0.798
		c0.135,0.059,0.311,0.111,0.526,0.159c0.215,0.048,0.474,0.071,0.775,0.071c0.264,0,0.488-0.027,0.672-0.082
		c0.185-0.055,0.346-0.133,0.482-0.236c0.14-0.105,0.244-0.232,0.312-0.381c0.067-0.147,0.101-0.307,0.101-0.479
		c0-0.15-0.023-0.271-0.071-0.363S8.08,21.233,8,21.165z"/>
</g>
</svg>
