<?xml version="1.0" encoding="utf-8"?>
<!-- Generator: Adobe Illustrator 16.0.4, SVG Export Plug-In . SVG Version: 6.00 Build 0)  -->
<!DOCTYPE svg PUBLIC "-//W3C//DTD SVG 1.1//EN" "http://www.w3.org/Graphics/SVG/1.1/DTD/svg11.dtd">
<svg version="1.1" id="Layer_1" xmlns="http://www.w3.org/2000/svg" xmlns:xlink="http://www.w3.org/1999/xlink" x="0px" y="0px"
	 width="28.35px" height="28.35px" viewBox="0 0 28.35 28.35" enable-background="new 0 0 28.35 28.35" xml:space="preserve">
<g>
	<path fill="#1E1E1C" d="M21.564,12.498h-9.785c-0.911,0-1.652,0.742-1.652,1.655v0.017v0.004v0.004v0.017
		c-0.001,0.912,0.74,1.654,1.655,1.654h9.783c0.913,0,1.654-0.742,1.654-1.655v-0.017v-0.004v-0.004v-0.016
		C23.22,13.24,22.479,12.498,21.564,12.498z"/>
	<path fill="#1E1E1C" d="M21.564,5.477h-9.785c-0.911,0-1.652,0.742-1.652,1.656v0.016v0.004v0.005v0.017
		c-0.001,0.913,0.74,1.654,1.655,1.654h9.783c0.913,0,1.654-0.741,1.654-1.655V7.156V7.151V7.147V7.134
		C23.22,6.219,22.479,5.477,21.564,5.477z"/>
	<path fill="#1E1E1C" d="M21.564,19.519h-9.785c-0.911,0-1.652,0.742-1.652,1.656v0.016v0.004v0.005v0.017
		c-0.001,0.913,0.74,1.654,1.655,1.654h9.783c0.913,0,1.654-0.741,1.654-1.655v-0.017v-0.005v-0.004v-0.015
		C23.22,20.261,22.479,19.519,21.564,19.519z"/>
	<circle fill="#1E1E1C" cx="6.803" cy="7.152" r="1.676"/>
	<circle fill="#1E1E1C" cx="6.803" cy="14.161" r="1.676"/>
	<circle fill="#1E1E1C" cx="6.803" cy="21.204" r="1.676"/>
</g>
</svg>
