<?xml version="1.0" encoding="utf-8"?>
<!-- Generator: Adobe Illustrator 16.0.4, SVG Export Plug-In . SVG Version: 6.00 Build 0)  -->
<!DOCTYPE svg PUBLIC "-//W3C//DTD SVG 1.1//EN" "http://www.w3.org/Graphics/SVG/1.1/DTD/svg11.dtd">
<svg version="1.1" id="Layer_1" xmlns="http://www.w3.org/2000/svg" xmlns:xlink="http://www.w3.org/1999/xlink" x="0px" y="0px"
	 width="28.35px" height="28.35px" viewBox="0 0 28.35 28.35" enable-background="new 0 0 28.35 28.35" xml:space="preserve">
<path fill="#010202" d="M14.173,4.736c-3.612,0-6.549,2.939-6.549,6.551c0,3.476,5.942,11.598,6.196,11.942l0.235,0.321
	c0.028,0.037,0.072,0.061,0.118,0.061c0.047,0,0.091-0.023,0.119-0.061l0.236-0.321c0.254-0.344,6.195-8.466,6.195-11.942
	C20.723,7.675,17.784,4.736,14.173,4.736z M14.173,8.94c1.294,0,2.346,1.053,2.346,2.347c0,1.292-1.052,2.346-2.346,2.346
	c-1.293,0-2.346-1.053-2.346-2.346C11.827,9.993,12.88,8.94,14.173,8.94z"/>
</svg>
