<?xml version="1.0" encoding="utf-8"?>
<!-- Generator: Adobe Illustrator 16.0.4, SVG Export Plug-In . SVG Version: 6.00 Build 0)  -->
<!DOCTYPE svg PUBLIC "-//W3C//DTD SVG 1.1//EN" "http://www.w3.org/Graphics/SVG/1.1/DTD/svg11.dtd">
<svg version="1.1" id="Layer_1" xmlns="http://www.w3.org/2000/svg" xmlns:xlink="http://www.w3.org/1999/xlink" x="0px" y="0px"
	 width="28.35px" height="28.35px" viewBox="0 0 28.35 28.35" enable-background="new 0 0 28.35 28.35" xml:space="preserve">
<g>
	<path fill="#010202" d="M19.464,5.208h-11c-0.915,0-1.655,0.741-1.655,1.652v2.135h1.655V6.865h11v14.309h-11V19.07H6.809v2.103
		c0,0.914,0.741,1.655,1.655,1.655h11c0.913,0,1.654-0.741,1.654-1.655V6.863C21.118,5.949,20.377,5.208,19.464,5.208z"/>
	<path fill="#010202" d="M10.167,17.766c0,0.871,0.679,0.68,0.679,0.68l5.093-4.413l-5.093-4.414c0,0-0.679-0.256-0.679,0.657
		c0,0.257,0,0.907,0,1.72H6.094c-0.375,0-0.68,0.305-0.68,0.679v2.716c0,0.375,0.305,0.68,0.68,0.68h4.074
		C10.167,16.913,10.167,17.569,10.167,17.766z"/>
</g>
</svg>
