<?xml version="1.0" encoding="utf-8"?>
<!-- Generator: Adobe Illustrator 16.0.4, SVG Export Plug-In . SVG Version: 6.00 Build 0)  -->
<!DOCTYPE svg PUBLIC "-//W3C//DTD SVG 1.1//EN" "http://www.w3.org/Graphics/SVG/1.1/DTD/svg11.dtd">
<svg version="1.1" id="Layer_1" xmlns="http://www.w3.org/2000/svg" xmlns:xlink="http://www.w3.org/1999/xlink" x="0px" y="0px"
	 width="28.35px" height="28.35px" viewBox="0 0 28.35 28.35" enable-background="new 0 0 28.35 28.35" xml:space="preserve">
<g>
	<path fill="#010202" d="M19.464,21.172h-11V6.864h11v2.169l1.654,1.434V6.863c0-0.913-0.741-1.654-1.654-1.654h-11
		c-0.915,0-1.655,0.741-1.655,1.653v14.311c0,0.914,0.741,1.655,1.655,1.655h11c0.913,0,1.654-0.741,1.654-1.655V17.88l-1.654,1.434
		V21.172z"/>
	<path fill="#010202" d="M16.76,18.657l5.174-4.484l-5.175-4.484c0,0-0.69-0.259-0.69,0.668c0,0.26,0,0.921,0,1.746H11.93
		c-0.38,0-0.688,0.311-0.688,0.69v2.76c0,0.379,0.309,0.689,0.688,0.689h4.14c0,0.858,0,1.524,0,1.726
		C16.07,18.85,16.76,18.657,16.76,18.657z"/>
</g>
</svg>
