<?xml version="1.0" encoding="utf-8"?>
<!-- Generator: Adobe Illustrator 16.0.4, SVG Export Plug-In . SVG Version: 6.00 Build 0)  -->
<!DOCTYPE svg PUBLIC "-//W3C//DTD SVG 1.1//EN" "http://www.w3.org/Graphics/SVG/1.1/DTD/svg11.dtd">
<svg version="1.1" id="Layer_2" xmlns="http://www.w3.org/2000/svg" xmlns:xlink="http://www.w3.org/1999/xlink" x="0px" y="0px"
	 width="28.35px" height="28.35px" viewBox="0 0 28.35 28.35" enable-background="new 0 0 28.35 28.35" xml:space="preserve">
<g>
	<path fill="#010202" d="M16.331,9.893l-5.336-5.336H6.909c-0.915,0-1.655,0.741-1.655,1.651v11.32c0,0.914,0.741,1.656,1.655,1.656
		h2.314v-5.702h7.107V9.893z M14.676,11.757H9.215l0.001-5.445h1.759v3.687h3.701V11.757z"/>
	<path fill="#010202" d="M10.984,15.215v8.574l12.109,0.001v-8.575H10.984z M13.677,16.87c0.475,0,0.858,0.385,0.858,0.859
		s-0.384,0.858-0.858,0.858s-0.859-0.384-0.859-0.858S13.202,16.87,13.677,16.87z M12.817,22.023l2.577-3.436l1.718,1.718
		l2.576-3.436l1.717,5.153H12.817z"/>
</g>
</svg>
