<?xml version="1.0" encoding="utf-8"?>
<!-- Generator: Adobe Illustrator 16.0.4, SVG Export Plug-In . SVG Version: 6.00 Build 0)  -->
<!DOCTYPE svg PUBLIC "-//W3C//DTD SVG 1.1//EN" "http://www.w3.org/Graphics/SVG/1.1/DTD/svg11.dtd">
<svg version="1.1" id="Layer_1" xmlns="http://www.w3.org/2000/svg" xmlns:xlink="http://www.w3.org/1999/xlink" x="0px" y="0px"
	 width="28.35px" height="28.35px" viewBox="0 0 28.35 28.35" enable-background="new 0 0 28.35 28.35" xml:space="preserve">
<g>
	<path fill="#010202" d="M13.937,21.275c-1.893-1.341-1.813-3.945-1.813-3.945H6.282v0.789l1.578,4.499l0.393,1.024h5.526
		c0.868,0,1.026-0.711,0.947-1.024C14.727,22.223,14.49,21.67,13.937,21.275z"/>
	<path fill="#010202" d="M24.069,13.384c0-1.132-0.889-2.049-2.005-2.112V5.492c0-0.344-0.221-0.646-0.547-0.751
		c-0.324-0.104-0.684,0.013-0.884,0.292c-0.037,0.05-3.8,5.193-9.617,5.193H6.124c-0.789,0-1.42,0.631-1.42,1.42v3.475
		c0,0.789,0.631,1.419,1.42,1.419h4.893c5.817,0,9.58,5.144,9.617,5.193c0.151,0.211,0.392,0.33,0.642,0.33
		c0.081,0,0.161-0.014,0.242-0.039c0.326-0.104,0.547-0.405,0.547-0.75v-5.778C23.181,15.433,24.069,14.516,24.069,13.384z"/>
</g>
</svg>
