<?xml version="1.0" encoding="utf-8"?>
<!-- Generator: Adobe Illustrator 16.0.4, SVG Export Plug-In . SVG Version: 6.00 Build 0)  -->
<!DOCTYPE svg PUBLIC "-//W3C//DTD SVG 1.1//EN" "http://www.w3.org/Graphics/SVG/1.1/DTD/svg11.dtd">
<svg version="1.1" id="Layer_2" xmlns="http://www.w3.org/2000/svg" xmlns:xlink="http://www.w3.org/1999/xlink" x="0px" y="0px"
	 width="28.35px" height="28.35px" viewBox="0 0 28.35 28.35" enable-background="new 0 0 28.35 28.35" xml:space="preserve">
<g>
	<path fill="#1D1D1B" d="M21.565,12.498H6.78c-0.912,0-1.653,0.742-1.653,1.656v0.016v0.004v0.004v0.017
		c-0.001,0.912,0.74,1.654,1.655,1.654h14.784c0.913,0,1.654-0.742,1.654-1.655v-0.017v-0.004v-0.004v-0.015
		C23.22,13.24,22.479,12.498,21.565,12.498z"/>
	<path fill="#1D1D1B" d="M21.565,5.477H6.78c-0.912,0-1.653,0.742-1.653,1.656v0.016v0.004v0.004v0.017
		c-0.001,0.913,0.74,1.654,1.655,1.654h14.784c0.913,0,1.654-0.741,1.654-1.655V7.156V7.152V7.148V7.134
		C23.22,6.219,22.479,5.477,21.565,5.477z"/>
	<path fill="#1D1D1B" d="M21.565,19.519H6.78c-0.912,0-1.653,0.742-1.653,1.656v0.016v0.004v0.004v0.017
		c-0.001,0.913,0.74,1.654,1.655,1.654h14.784c0.913,0,1.654-0.741,1.654-1.655v-0.017v-0.004V21.19v-0.015
		C23.22,20.261,22.479,19.519,21.565,19.519z"/>
</g>
</svg>
