<?xml version="1.0" encoding="utf-8"?>
<!-- Generator: Adobe Illustrator 16.0.4, SVG Export Plug-In . SVG Version: 6.00 Build 0)  -->
<!DOCTYPE svg PUBLIC "-//W3C//DTD SVG 1.1//EN" "http://www.w3.org/Graphics/SVG/1.1/DTD/svg11.dtd">
<svg version="1.1" id="Layer_1" xmlns="http://www.w3.org/2000/svg" xmlns:xlink="http://www.w3.org/1999/xlink" x="0px" y="0px"
	 width="28.35px" height="28.35px" viewBox="0 0 28.35 28.35" enable-background="new 0 0 28.35 28.35" xml:space="preserve">
<g>
	<g>
		<path fill-rule="evenodd" clip-rule="evenodd" d="M8.5,14.5c-1.104,0-2,0.896-2,2s0.896,2,2,2s2-0.896,2-2S9.604,14.5,8.5,14.5z
			 M14.5,14.5c-1.104,0-2,0.896-2,2s0.896,2,2,2s2-0.896,2-2S15.604,14.5,14.5,14.5z M20.5,14.5c-1.104,0-2,0.896-2,2s0.896,2,2,2
			s2-0.896,2-2S21.604,14.5,20.5,14.5z"/>
	</g>
</g>
</svg>
