<?xml version="1.0" encoding="iso-8859-1"?>
<!-- Generator: Adobe Illustrator 16.0.4, SVG Export Plug-In . SVG Version: 6.00 Build 0)  -->
<!DOCTYPE svg PUBLIC "-//W3C//DTD SVG 1.1//EN" "http://www.w3.org/Graphics/SVG/1.1/DTD/svg11.dtd">
<svg version="1.1" id="Layer_1" xmlns="http://www.w3.org/2000/svg" xmlns:xlink="http://www.w3.org/1999/xlink" x="0px" y="0px"
	 width="28.35px" height="28.35px" viewBox="0 0 28.35 28.35" style="enable-background:new 0 0 28.35 28.35;" xml:space="preserve"
	>
<path d="M10.086,22.125H7.5v-16h9l4,4v1.587c-0.324-0.131-0.658-0.236-1-0.325v-0.262h-4v-4h-7v14h1.262
	C9.85,21.467,9.956,21.802,10.086,22.125z M23.5,19.125c0,3.313-2.688,6-6,6c-3.314,0-6-2.687-6-6s2.687-6,6-6
	C20.812,13.125,23.5,15.812,23.5,19.125z M21.5,18.125h-8v2h8V18.125z"/>
</svg>
