<?xml version="1.0" encoding="utf-8"?>
<!-- Generator: Adobe Illustrator 16.0.4, SVG Export Plug-In . SVG Version: 6.00 Build 0)  -->
<!DOCTYPE svg PUBLIC "-//W3C//DTD SVG 1.1//EN" "http://www.w3.org/Graphics/SVG/1.1/DTD/svg11.dtd">
<svg version="1.1" id="Layer_1" xmlns="http://www.w3.org/2000/svg" xmlns:xlink="http://www.w3.org/1999/xlink" x="0px" y="0px"
	 width="28.35px" height="28.35px" viewBox="0 0 28.35 28.35" enable-background="new 0 0 28.35 28.35" xml:space="preserve">
<g>
	<path fill="#010202" d="M18.593,13.713c-3.082,0-5.58,2.499-5.58,5.58c0,3.082,2.498,5.58,5.58,5.58s5.58-2.498,5.58-5.58
		C24.173,16.212,21.675,13.713,18.593,13.713z M19.755,22.359c-0.287,0.114-0.516,0.201-0.688,0.261
		c-0.17,0.06-0.368,0.09-0.595,0.09c-0.348,0-0.619-0.087-0.812-0.256s-0.289-0.385-0.289-0.646c0-0.102,0.007-0.205,0.021-0.312
		c0.016-0.104,0.039-0.223,0.071-0.357l0.359-1.27c0.031-0.122,0.059-0.238,0.079-0.346c0.022-0.108,0.032-0.208,0.032-0.3
		c0-0.161-0.033-0.275-0.099-0.338c-0.068-0.064-0.196-0.094-0.385-0.094c-0.092,0-0.188,0.013-0.285,0.042
		c-0.097,0.03-0.182,0.058-0.251,0.083l0.096-0.391c0.234-0.097,0.46-0.179,0.675-0.247c0.215-0.069,0.418-0.103,0.609-0.103
		c0.346,0,0.611,0.084,0.799,0.25c0.186,0.167,0.281,0.384,0.281,0.65c0,0.055-0.007,0.151-0.02,0.29
		c-0.013,0.142-0.036,0.269-0.072,0.385l-0.357,1.266c-0.028,0.102-0.056,0.218-0.078,0.348c-0.024,0.129-0.035,0.228-0.035,0.295
		c0,0.169,0.038,0.283,0.112,0.345c0.074,0.06,0.206,0.092,0.393,0.092c0.087,0,0.185-0.018,0.295-0.047
		c0.109-0.03,0.188-0.058,0.239-0.079L19.755,22.359z M19.692,17.222c-0.168,0.156-0.369,0.232-0.604,0.232
		s-0.437-0.076-0.604-0.232c-0.167-0.154-0.253-0.343-0.253-0.563c0-0.22,0.086-0.408,0.253-0.564
		c0.168-0.157,0.37-0.234,0.604-0.234s0.436,0.077,0.604,0.234c0.166,0.156,0.249,0.346,0.249,0.564
		C19.941,16.879,19.856,17.067,19.692,17.222z"/>
	<path fill="#010202" d="M8.464,21.172V8.967h11v3.306c0.576,0.071,1.13,0.213,1.654,0.414V6.862c0-0.913-0.741-1.654-1.654-1.654
		h-11c-0.915,0-1.655,0.741-1.655,1.653v14.311c0,0.914,0.741,1.655,1.655,1.655h4.003c-0.298-0.515-0.532-1.069-0.693-1.655H8.464z
		"/>
</g>
</svg>
