<?xml version="1.0" encoding="utf-8"?>
<!-- Generator: Adobe Illustrator 16.0.4, SVG Export Plug-In . SVG Version: 6.00 Build 0)  -->
<!DOCTYPE svg PUBLIC "-//W3C//DTD SVG 1.1//EN" "http://www.w3.org/Graphics/SVG/1.1/DTD/svg11.dtd">
<svg version="1.1" id="Layer_1" xmlns="http://www.w3.org/2000/svg" xmlns:xlink="http://www.w3.org/1999/xlink" x="0px" y="0px"
	 width="28.35px" height="28.35px" viewBox="0 0 28.35 28.35" enable-background="new 0 0 28.35 28.35" xml:space="preserve">
<g>
	<polygon fill="#1D1D1B" points="14.821,19.788 17.772,22.74 23.553,16.906 20.601,13.956 	"/>
	<path fill="#1D1D1B" d="M25.706,13.423l-1.637-1.648c-0.357-0.358-0.941-0.358-1.302,0l-1.305,1.316l2.938,2.953l1.304-1.314
		C26.066,14.367,26.066,13.782,25.706,13.423z"/>
	<path fill="#1D1D1B" d="M14.209,22.886c0,0.356,0.201,0.479,0.516,0.479l2.304,0.013c0.013,0,0.013-0.011,0.025-0.011l-2.845-2.831
		C14.196,20.546,14.209,22.886,14.209,22.886z"/>
	<path fill="#1D1D1B" d="M8.464,8.967h11v3.857l1.654-1.655V6.863c0-0.911-0.741-1.652-1.654-1.652h-11
		c-0.915,0-1.655,0.741-1.655,1.652v14.312c0,0.914,0.741,1.655,1.655,1.655h3.463l0.001-1.655H8.464V8.967z"/>
</g>
</svg>
