<?xml version="1.0" encoding="utf-8"?>
<!-- Generator: Adobe Illustrator 16.0.4, SVG Export Plug-In . SVG Version: 6.00 Build 0)  -->
<!DOCTYPE svg PUBLIC "-//W3C//DTD SVG 1.1//EN" "http://www.w3.org/Graphics/SVG/1.1/DTD/svg11.dtd">
<svg version="1.1" id="Layer_1" xmlns="http://www.w3.org/2000/svg" xmlns:xlink="http://www.w3.org/1999/xlink" x="0px" y="0px"
	 width="28.35px" height="28.35px" viewBox="0 0 28.35 28.35" enable-background="new 0 0 28.35 28.35" xml:space="preserve">
<g>
	<path fill="#010202" d="M20.98,9.819h-7.984c-0.999,0-1.815,0.817-1.815,1.815v10.707c0,0.999,0.817,1.815,1.815,1.815h7.984
		c0.999,0,1.815-0.816,1.815-1.815V11.635C22.796,10.637,21.979,9.819,20.98,9.819z M20.98,22.342h-7.984V11.635h7.984V22.342z"/>
	<path fill="#010202" d="M19.165,5.989c0-0.998-0.816-1.815-1.815-1.815H7.366c-0.999,0-1.816,0.817-1.816,1.815v12.707
		c0,1,0.817,1.816,1.816,1.816h1.822V9.627c0-0.998,0.817-1.815,1.816-1.815h8.161V5.989z"/>
</g>
</svg>
