<?xml version="1.0" encoding="iso-8859-1"?>
<!-- Generator: Adobe Illustrator 16.0.4, SVG Export Plug-In . SVG Version: 6.00 Build 0)  -->
<!DOCTYPE svg PUBLIC "-//W3C//DTD SVG 1.1//EN" "http://www.w3.org/Graphics/SVG/1.1/DTD/svg11.dtd">
<svg version="1.1" id="Layer_1" xmlns="http://www.w3.org/2000/svg" xmlns:xlink="http://www.w3.org/1999/xlink" x="0px" y="0px"
	 width="28.35px" height="28.35px" viewBox="0 0 28.35 28.35" style="enable-background:new 0 0 28.35 28.35;" xml:space="preserve"
	>
<path d="M18.642,18.268H9.705v1.277v3.83h8.937v-3.83V18.268z M18.642,9.331v2.554H9.705V9.331V5.5h8.937V9.331z M23.749,11.458
	v5.958c0,1.192-1.356,2.129-2.553,2.129h-1.277v-1.277v-1.276H8.428v1.276v1.277H7.151c-1.197,0-2.554-0.937-2.554-2.129v-5.958
	c0-1.192,1.356-2.128,2.554-2.128h1.276v2.554v1.276h11.491v-1.276V9.331h1.277C22.393,9.331,23.749,10.267,23.749,11.458z"/>
</svg>
