<?xml version="1.0" encoding="iso-8859-1"?>
<!-- Generator: Adobe Illustrator 16.0.4, SVG Export Plug-In . SVG Version: 6.00 Build 0)  -->
<!DOCTYPE svg PUBLIC "-//W3C//DTD SVG 1.1//EN" "http://www.w3.org/Graphics/SVG/1.1/DTD/svg11.dtd">
<svg version="1.1" id="Layer_1" xmlns="http://www.w3.org/2000/svg" xmlns:xlink="http://www.w3.org/1999/xlink" x="0px" y="0px"
	 width="28.35px" height="28.35px" viewBox="0 0 28.35 28.35" style="enable-background:new 0 0 28.35 28.35;" xml:space="preserve"
	>
<path d="M17.5,17.5h-7v1v3h7v-3V17.5z M17.5,10.5v2h-7v-2v-3h7V10.5z M21.5,12.167v4.667c0,0.934-1.062,1.667-2,1.667h-1v-1v-1h-9v1
	v1h-1c-0.938,0-2-0.733-2-1.667v-4.667c0-0.933,1.062-1.667,2-1.667h1v2v1h9v-1v-2h1C20.438,10.5,21.5,11.233,21.5,12.167z"/>
</svg>
