<?xml version="1.0" encoding="utf-8"?>
<!-- Generator: Adobe Illustrator 16.0.4, SVG Export Plug-In . SVG Version: 6.00 Build 0)  -->
<!DOCTYPE svg PUBLIC "-//W3C//DTD SVG 1.1//EN" "http://www.w3.org/Graphics/SVG/1.1/DTD/svg11.dtd">
<svg version="1.1" id="Layer_1" xmlns="http://www.w3.org/2000/svg" xmlns:xlink="http://www.w3.org/1999/xlink" x="0px" y="0px"
	 width="28.35px" height="28.35px" viewBox="0 0 28.35 28.35" enable-background="new 0 0 28.35 28.35" xml:space="preserve">
<path fill="#010202" d="M14.173,4.173c-5.522,0-10,4.478-10,10.001c0,5.522,4.478,10,10,10c5.523,0,10.001-4.478,10.001-10
	C24.174,8.65,19.696,4.173,14.173,4.173z M14.018,20.453c-0.957,0-1.606-0.704-1.606-1.642c0-0.958,0.667-1.642,1.606-1.642
	c0.975,0,1.606,0.684,1.623,1.642C15.641,19.749,14.992,20.453,14.018,20.453z M16.202,13.74c-0.669,0.738-0.939,1.445-0.92,2.256
	v0.324h-2.4l-0.019-0.469c-0.053-0.92,0.254-1.859,1.063-2.833c0.579-0.686,1.048-1.263,1.048-1.877
	c0-0.632-0.416-1.046-1.319-1.084c-0.594,0-1.316,0.217-1.786,0.542l-0.615-1.968c0.649-0.379,1.733-0.739,3.014-0.739
	c2.384,0,3.467,1.317,3.467,2.815C17.735,12.08,16.887,12.982,16.202,13.74z"/>
</svg>
