<?xml version="1.0" encoding="utf-8"?>
<!-- Generator: Adobe Illustrator 16.0.4, SVG Export Plug-In . SVG Version: 6.00 Build 0)  -->
<!DOCTYPE svg PUBLIC "-//W3C//DTD SVG 1.1//EN" "http://www.w3.org/Graphics/SVG/1.1/DTD/svg11.dtd">
<svg version="1.1" id="Layer_1" xmlns="http://www.w3.org/2000/svg" xmlns:xlink="http://www.w3.org/1999/xlink" x="0px" y="0px"
	 width="28.35px" height="28.35px" viewBox="0 0 28.35 28.35" enable-background="new 0 0 28.35 28.35" xml:space="preserve">
<path fill="#010202" d="M25.556,14.928l-3.411,3.413c-0.284,0.284-0.67,0.442-1.074,0.442c-0.4,0-0.787-0.158-1.072-0.442
	l-3.411-3.413c-0.592-0.591-0.592-1.552,0-2.145c0.593-0.592,1.553-0.592,2.145,0l0.926,0.926c-0.235-2.851-2.626-5.099-5.537-5.099
	c-3.066,0-5.561,2.495-5.561,5.562c0,3.065,2.495,5.558,5.561,5.558c0.837,0,1.516,0.68,1.516,1.52c0,0.837-0.679,1.516-1.516,1.516
	c-4.739,0-8.595-3.856-8.595-8.593c0-4.74,3.855-8.595,8.595-8.595c4.517,0,8.222,3.505,8.562,7.936l0.728-0.73
	c0.592-0.592,1.554-0.592,2.146,0C26.147,13.376,26.147,14.337,25.556,14.928z"/>
</svg>
