<?xml version="1.0" encoding="utf-8"?>
<!-- Generator: Adobe Illustrator 16.0.4, SVG Export Plug-In . SVG Version: 6.00 Build 0)  -->
<!DOCTYPE svg PUBLIC "-//W3C//DTD SVG 1.1//EN" "http://www.w3.org/Graphics/SVG/1.1/DTD/svg11.dtd">
<svg version="1.1" id="Layer_1" xmlns="http://www.w3.org/2000/svg" xmlns:xlink="http://www.w3.org/1999/xlink" x="0px" y="0px"
	 width="28.35px" height="28.35px" viewBox="0 0 28.35 28.35" enable-background="new 0 0 28.35 28.35" xml:space="preserve">
<path fill="#020304" d="M22.616,19.573c-0.428-0.438-3.627-3.495-5.623-5.4c1.996-1.905,5.194-4.961,5.622-5.399
	c0.627-0.645,0.671-1.8,0-2.486c-0.67-0.688-1.604-0.742-2.428,0l-6.017,5.769L8.154,6.287c-0.821-0.741-1.757-0.688-2.426,0
	c-0.67,0.687-0.627,1.842,0,2.486c0.428,0.438,3.627,3.496,5.624,5.401c-1.997,1.905-5.195,4.961-5.623,5.398
	c-0.627,0.645-0.671,1.801,0,2.486c0.67,0.688,1.604,0.742,2.428,0l6.017-5.768l6.017,5.768c0.821,0.742,1.757,0.688,2.426,0
	C23.286,21.374,23.243,20.218,22.616,19.573z"/>
</svg>
