<?xml version="1.0" encoding="iso-8859-1"?>
<!-- Generator: Adobe Illustrator 16.0.4, SVG Export Plug-In . SVG Version: 6.00 Build 0)  -->
<!DOCTYPE svg PUBLIC "-//W3C//DTD SVG 1.1//EN" "http://www.w3.org/Graphics/SVG/1.1/DTD/svg11.dtd">
<svg version="1.1" id="Layer_1" xmlns="http://www.w3.org/2000/svg" xmlns:xlink="http://www.w3.org/1999/xlink" x="0px" y="0px"
	 width="28.35px" height="28.35px" viewBox="0 0 28.35 28.35" style="enable-background:new 0 0 28.35 28.35;" xml:space="preserve"
	>
<path d="M21.244,7.102c-3.905-3.905-10.237-3.905-14.141,0c-3.906,3.905-3.906,10.237,0,14.142c3.904,3.905,10.236,3.905,14.141,0
	S25.149,11.007,21.244,7.102z M19.047,17.181c0.516,0.516,0.516,1.352,0,1.867c-0.515,0.515-1.351,0.516-1.866,0l-3.007-3.009
	l-3.009,3.009c-0.515,0.516-1.351,0.516-1.866,0s-0.516-1.352,0-1.867l3.008-3.008l-3.008-3.008c-0.516-0.515-0.516-1.351,0-1.866
	s1.352-0.516,1.866,0l3.009,3.008l3.008-3.008c0.515-0.516,1.351-0.516,1.866,0c0.516,0.515,0.516,1.351,0,1.866l-3.009,3.009
	L19.047,17.181z"/>
</svg>
