<?xml version="1.0" encoding="utf-8"?>
<!-- Generator: Adobe Illustrator 16.0.4, SVG Export Plug-In . SVG Version: 6.00 Build 0)  -->
<!DOCTYPE svg PUBLIC "-//W3C//DTD SVG 1.1//EN" "http://www.w3.org/Graphics/SVG/1.1/DTD/svg11.dtd">
<svg version="1.1" id="Layer_1" xmlns="http://www.w3.org/2000/svg" xmlns:xlink="http://www.w3.org/1999/xlink" x="0px" y="0px"
	 width="28.35px" height="28.35px" viewBox="0 0 28.35 28.35" enable-background="new 0 0 28.35 28.35" xml:space="preserve">
<g id="loop_x5F_alt2">
	<g>
		<path fill="#010202" d="M16.62,17.895l3.726-4.961l3.749,4.961h-2.479v1.24c0,2.052-1.669,3.72-3.721,3.72h-7.442
			c-2.052,0-3.72-1.668-3.72-3.72v-1.24h2.48v1.24c0,0.683,0.557,1.24,1.24,1.24h7.442c0.683,0,1.24-0.558,1.24-1.24v-1.24H16.62z"
			/>
		<path fill="#010202" d="M11.727,10.453l-3.726,4.961l-3.75-4.961h2.48v-1.24c0-2.052,1.668-3.721,3.72-3.721h7.442
			c2.052,0,3.721,1.668,3.721,3.721v1.24h-2.48v-1.24c0-0.684-0.558-1.24-1.24-1.24h-7.442c-0.683,0-1.24,0.557-1.24,1.24v1.24
			H11.727z"/>
	</g>
</g>
</svg>
