<?xml version="1.0" encoding="iso-8859-1"?>
<!-- Generator: Adobe Illustrator 16.0.4, SVG Export Plug-In . SVG Version: 6.00 Build 0)  -->
<!DOCTYPE svg PUBLIC "-//W3C//DTD SVG 1.1//EN" "http://www.w3.org/Graphics/SVG/1.1/DTD/svg11.dtd">
<svg version="1.1" id="Layer_1" xmlns="http://www.w3.org/2000/svg" xmlns:xlink="http://www.w3.org/1999/xlink" x="0px" y="0px"
	 width="28.35px" height="28.35px" viewBox="0 0 28.35 28.35" style="enable-background:new 0 0 28.35 28.35;" xml:space="preserve"
	>
<path d="M18.5,11c0-4.142-3.358-7.5-7.5-7.5S3.5,6.858,3.5,11s3.358,7.5,7.5,7.5S18.5,15.142,18.5,11z M11,15.5
	c-2.481,0-4.5-2.019-4.5-4.5S8.519,6.5,11,6.5s4.5,2.019,4.5,4.5S13.481,15.5,11,15.5z M22.95,22.951
	c-0.73,0.732-1.718,1.281-2.45,0.549l-5-5c1.365-0.25,2.41-1.449,3-3l5,5C24.232,21.232,23.683,22.219,22.95,22.951z"/>
</svg>
