<?xml version="1.0" encoding="utf-8"?>
<!-- Generator: Adobe Illustrator 16.0.4, SVG Export Plug-In . SVG Version: 6.00 Build 0)  -->
<!DOCTYPE svg PUBLIC "-//W3C//DTD SVG 1.1//EN" "http://www.w3.org/Graphics/SVG/1.1/DTD/svg11.dtd">
<svg version="1.1" id="Layer_1" xmlns="http://www.w3.org/2000/svg" xmlns:xlink="http://www.w3.org/1999/xlink" x="0px" y="0px"
	 width="28.35px" height="28.35px" viewBox="0 0 28.35 28.35" enable-background="new 0 0 28.35 28.35" xml:space="preserve">
<g>
	<path fill="#010202" d="M7.842,12.363h12.668c0.245,0,0.456-0.089,0.636-0.269c0.179-0.179,0.269-0.391,0.269-0.636
		s-0.09-0.458-0.269-0.636l-6.335-6.334c-0.178-0.179-0.39-0.269-0.635-0.269s-0.458,0.089-0.636,0.269l-6.334,6.334
		c-0.179,0.179-0.269,0.391-0.269,0.636s0.09,0.457,0.269,0.636C7.385,12.274,7.597,12.363,7.842,12.363z"/>
	<path fill="#010202" d="M20.511,15.983H7.842c-0.246,0-0.458,0.09-0.637,0.269c-0.179,0.179-0.269,0.391-0.269,0.636
		s0.09,0.458,0.269,0.638l6.334,6.333c0.18,0.18,0.391,0.269,0.636,0.269s0.458-0.089,0.635-0.269l6.335-6.333
		c0.179-0.18,0.269-0.393,0.269-0.638s-0.09-0.457-0.269-0.636C20.967,16.073,20.756,15.983,20.511,15.983z"/>
</g>
</svg>
