<?xml version="1.0" encoding="utf-8"?>
<!-- Generator: Adobe Illustrator 16.0.4, SVG Export Plug-In . SVG Version: 6.00 Build 0)  -->
<!DOCTYPE svg PUBLIC "-//W3C//DTD SVG 1.1//EN" "http://www.w3.org/Graphics/SVG/1.1/DTD/svg11.dtd">
<svg version="1.1" id="Layer_1" xmlns="http://www.w3.org/2000/svg" xmlns:xlink="http://www.w3.org/1999/xlink" x="0px" y="0px"
	 width="28.35px" height="28.35px" viewBox="0 0 28.35 28.35" enable-background="new 0 0 28.35 28.35" xml:space="preserve">
<path fill="#010202" d="M24.092,6.032c-0.054-0.64-0.57-1.179-1.222-1.179H5.475c-0.65,0-1.167,0.539-1.222,1.179H4.232V22.25
	c0,0.688,0.557,1.243,1.243,1.243H22.87c0.688,0,1.243-0.556,1.243-1.243V6.032H24.092z M10.445,22.25H5.475v-3.728h4.971V22.25z
	 M10.445,17.384H5.475v-3.832h4.971V17.384z M10.445,12.31H5.475V8.581h4.971V12.31z M16.658,22.25h-4.97v-3.728h4.97V22.25z
	 M16.658,17.384h-4.97v-3.832h4.97V17.384z M16.658,12.31h-4.97V8.581h4.97V12.31z M22.87,22.25h-4.969v-3.728h4.969V22.25z
	 M22.87,17.384h-4.969v-3.832h4.969V17.384z M22.87,12.31h-4.969V8.581h4.969V12.31z"/>
</svg>
