<?xml version="1.0" encoding="iso-8859-1"?>
<!-- Generator: Adobe Illustrator 16.0.4, SVG Export Plug-In . SVG Version: 6.00 Build 0)  -->
<!DOCTYPE svg PUBLIC "-//W3C//DTD SVG 1.1//EN" "http://www.w3.org/Graphics/SVG/1.1/DTD/svg11.dtd">
<svg version="1.1" id="Layer_1" xmlns="http://www.w3.org/2000/svg" xmlns:xlink="http://www.w3.org/1999/xlink" x="0px" y="0px"
	 width="28.35px" height="28.35px" viewBox="0 0 28.35 28.35" style="enable-background:new 0 0 28.35 28.35;" xml:space="preserve"
	>
<g>
	<path style="fill:#010202;" d="M23.673,19.338h-2.672L21,16.665c0.001-0.457-0.37-0.829-0.828-0.829
		c-0.459,0-0.83,0.372-0.83,0.829v2.673H16.67c-0.457,0-0.83,0.371-0.83,0.829c0,0.457,0.372,0.829,0.83,0.829h2.672v2.673
		c0,0.456,0.371,0.828,0.83,0.828c0.456,0,0.829-0.371,0.828-0.828v-2.673h2.673c0.457,0,0.828-0.372,0.828-0.829
		C24.501,19.709,24.13,19.338,23.673,19.338z"/>
	<path style="fill:#010202;" d="M8.335,8.339h11v5.497h1.654V8.338c0-0.913-0.741-1.654-1.654-1.654h-11
		c-0.915,0-1.655,0.741-1.655,1.653v11.002c0,0.914,0.741,1.655,1.655,1.655h5.505v-1.655H8.335V8.339z"/>
</g>
</svg>
