<?xml version="1.0" encoding="iso-8859-1"?>
<!-- Generator: Adobe Illustrator 16.0.4, SVG Export Plug-In . SVG Version: 6.00 Build 0)  -->
<!DOCTYPE svg PUBLIC "-//W3C//DTD SVG 1.1//EN" "http://www.w3.org/Graphics/SVG/1.1/DTD/svg11.dtd">
<svg version="1.1" id="Layer_1" xmlns="http://www.w3.org/2000/svg" xmlns:xlink="http://www.w3.org/1999/xlink" x="0px" y="0px"
	 width="28.35px" height="28.35px" viewBox="0 0 28.35 28.35" style="enable-background:new 0 0 28.35 28.35;" xml:space="preserve"
	>
<path d="M7.917,21.114c0.194,0.195,0.419,0.292,0.676,0.292c0.256,0,0.482-0.097,0.676-0.292c0.194-0.194,0.292-0.42,0.292-0.678
	c0-0.257-0.097-0.482-0.292-0.678c-0.194-0.194-0.42-0.292-0.676-0.292c-0.257,0-0.482,0.098-0.676,0.292
	c-0.194,0.195-0.292,0.421-0.292,0.678C7.626,20.694,7.723,20.92,7.917,21.114z M21.818,14.087c-0.528,0.542-1.12,0.959-1.779,1.251
	s-1.321,0.438-1.988,0.438c-0.442,0-0.9-0.104-1.373-0.312l-5.598,6.381c-0.028,0.043-0.104,0.143-0.229,0.304
	c-0.125,0.159-0.288,0.329-0.489,0.51c-0.201,0.182-0.437,0.352-0.707,0.512c-0.271,0.159-0.572,0.261-0.905,0.303
	c-0.777,0.11-1.526-0.182-2.248-0.876l-0.021-0.021H6.46c0-0.014-0.003-0.021-0.01-0.021s-0.011-0.008-0.011-0.021
	c-0.68-0.736-0.971-1.486-0.874-2.252c0.041-0.334,0.142-0.637,0.301-0.907c0.16-0.271,0.33-0.508,0.51-0.709
	c0.181-0.201,0.35-0.365,0.51-0.49c0.16-0.124,0.26-0.202,0.301-0.229l6.368-5.61c-0.208-0.473-0.312-0.931-0.312-1.376
	c0-0.667,0.146-1.331,0.438-1.992c0.291-0.66,0.708-1.254,1.248-1.783c0.527-0.528,1.11-0.931,1.748-1.209
	c0.638-0.278,1.284-0.41,1.936-0.396c0.069,0,0.125,0.014,0.166,0.042c0.042,0.028,0.126,0.104,0.25,0.229L19.3,6.12
	c0.139,0.153,0.139,0.299,0,0.438l-0.645,0.647l-0.688,0.688c0,0-0.117,0.143-0.354,0.428c-0.188,0.226-0.17,1.237,0.072,1.699
	c0.133,0.25,0.323,0.5,0.574,0.751c0.234,0.236,0.478,0.42,0.728,0.553c0.249,0.132,0.472,0.198,0.666,0.198h0.271
	c0.18,0,0.321-0.004,0.427-0.01c0.104-0.007,0.215-0.045,0.332-0.115c0.118-0.069,0.26-0.188,0.427-0.354l0.688-0.688l0.645-0.646
	c0.139-0.139,0.284-0.139,0.438,0l0.271,0.271c0.124,0.125,0.2,0.208,0.229,0.25c0.027,0.042,0.042,0.097,0.042,0.167
	c0.014,0.653-0.118,1.299-0.396,1.939C22.747,12.974,22.345,13.558,21.818,14.087z"/>
</svg>
