<?xml version="1.0" encoding="utf-8"?>
<!-- Generator: Adobe Illustrator 16.0.4, SVG Export Plug-In . SVG Version: 6.00 Build 0)  -->
<!DOCTYPE svg PUBLIC "-//W3C//DTD SVG 1.1//EN" "http://www.w3.org/Graphics/SVG/1.1/DTD/svg11.dtd">
<svg version="1.1" id="Layer_1" xmlns="http://www.w3.org/2000/svg" xmlns:xlink="http://www.w3.org/1999/xlink" x="0px" y="0px"
	 width="28.35px" height="28.35px" viewBox="0 0 28.35 28.35" enable-background="new 0 0 28.35 28.35" xml:space="preserve">
<path fill="#010202" d="M2.635,12.783c0.592-0.592,1.554-0.592,2.146,0l0.728,0.73c0.34-4.431,4.045-7.936,8.562-7.936
	c4.74,0,8.596,3.855,8.596,8.595c0,4.737-3.855,8.593-8.596,8.593c-0.837,0-1.516-0.679-1.516-1.516c0-0.84,0.679-1.52,1.516-1.52
	c3.066,0,5.562-2.493,5.562-5.558c0-3.066-2.495-5.562-5.562-5.562c-2.91,0-5.301,2.248-5.536,5.099l0.926-0.926
	c0.592-0.592,1.552-0.592,2.145,0c0.592,0.593,0.592,1.554,0,2.145l-3.411,3.413c-0.285,0.284-0.672,0.442-1.072,0.442
	c-0.404,0-0.79-0.158-1.074-0.442l-3.411-3.413C2.043,14.337,2.043,13.376,2.635,12.783z"/>
</svg>
