<?xml version="1.0" encoding="utf-8"?>
<!-- Generator: Adobe Illustrator 16.0.4, SVG Export Plug-In . SVG Version: 6.00 Build 0)  -->
<!DOCTYPE svg PUBLIC "-//W3C//DTD SVG 1.1//EN" "http://www.w3.org/Graphics/SVG/1.1/DTD/svg11.dtd">
<svg version="1.1" id="Layer_1" xmlns="http://www.w3.org/2000/svg" xmlns:xlink="http://www.w3.org/1999/xlink" x="0px" y="0px"
	 width="28.35px" height="28.35px" viewBox="0 0 28.35 28.35" enable-background="new 0 0 28.35 28.35" xml:space="preserve">
<g>
	<polygon fill="#020304" points="15.983,22.931 18.659,25.606 24.976,19.239 22.302,16.565 	"/>
	<path fill="#020304" d="M26.927,16.081l-1.482-1.493c-0.324-0.324-0.854-0.324-1.179,0l-1.181,1.192l2.661,2.678l1.181-1.194
		C27.253,16.938,27.253,16.409,26.927,16.081z"/>
	<path fill="#020304" d="M15.429,25.736c0,0.324,0.183,0.437,0.469,0.437l2.086,0.011c0.011,0,0.011-0.009,0.024-0.009l-2.579-2.566
		C15.417,23.616,15.429,25.736,15.429,25.736z"/>
	<path fill="#020304" d="M14.175,14.173c2.599,0,4.725-2.126,4.725-4.725c0-2.6-2.126-4.727-4.725-4.727S9.45,6.85,9.45,9.449
		C9.45,12.048,11.576,14.173,14.175,14.173z"/>
	<path fill="#020304" d="M14.175,16.535c-3.189,0-9.45,1.535-9.45,4.726v2.362h7.369l6.441-6.442
		C16.977,16.749,15.362,16.535,14.175,16.535z"/>
</g>
</svg>
