<?xml version="1.0" encoding="utf-8"?>
<!-- Generator: Adobe Illustrator 16.0.4, SVG Export Plug-In . SVG Version: 6.00 Build 0)  -->
<!DOCTYPE svg PUBLIC "-//W3C//DTD SVG 1.1//EN" "http://www.w3.org/Graphics/SVG/1.1/DTD/svg11.dtd">
<svg version="1.1" id="Layer_1" xmlns="http://www.w3.org/2000/svg" xmlns:xlink="http://www.w3.org/1999/xlink" x="0px" y="0px"
	 width="28.35px" height="28.35px" viewBox="0 0 28.35 28.35" enable-background="new 0 0 28.35 28.35" xml:space="preserve">
<g>
	<path fill="#010202" d="M14.223,10.862H8.792c-0.354,0-0.643,0.288-0.643,0.643c0,0.354,0.288,0.643,0.643,0.643h5.431
		c0.354,0,0.643-0.289,0.643-0.643C14.866,11.149,14.578,10.862,14.223,10.862z"/>
	<path fill="#010202" d="M19,11.5C19,7.358,15.643,4,11.5,4C7.358,4,4,7.358,4,11.5S7.357,19,11.5,19S19,15.643,19,11.5z M11.5,16
		C9.019,16,7,13.981,7,11.5C7,9.018,9.019,7,11.5,7c2.48,0,4.5,2.019,4.5,4.5C16,13.98,13.981,16,11.5,16z"/>
	<path fill="#010202" d="M24,21l-5-5c-0.59,1.551-1.635,2.75-3,3l5,5c0.731,0.731,1.721,0.184,2.451-0.549
		C24.184,22.719,24.731,21.731,24,21z"/>
</g>
</svg>
